<svg id="Graphic_elements" data-name="Graphic elements" xmlns="http://www.w3.org/2000/svg" viewBox="0 0 800 1200"><defs><style>.cls-1{fill:none;}.cls-2{fill:#010101;}</style></defs><path class="cls-1" d="M239.34,549.2a88.16,88.16,0,0,1,12.32,1.59C246.91,548.24,244.93,547.93,239.34,549.2Z"/><path class="cls-1" d="M231.32,531c-6.5,4.16-9.89,10.49-9.57,19.4,6.09-3.88,17.25-6.64,23.58-6.6,7.09,0,21.28,11.68,27.88,10.6,3.06-.47,5.45-2.75,7.16-5.19C275.51,543.59,246.87,524.14,231.32,531Z"/><path class="cls-1" d="M266.15,501.5a89.74,89.74,0,0,1-12.48,14.69c-.47,3.87.1,7.76.42,11.63a88.06,88.06,0,0,1,14.17,6.93c-1.34-11.66-.93-23.44.11-35.11A5.9,5.9,0,0,0,266.15,501.5Z"/><path class="cls-1" d="M279.22,557c.5,5,1.46,12.87,5.32,15.71-4.42-1.24-7.65-9.62-9.2-13.91-4.82,1.27-9.48-1-13.78-2.89,4.74,3.72,11.16,11.6,12.51,16.25,1.13,3.88-1.24,9-8.2,8.49a31.82,31.82,0,0,1-9.22-2.48c5,6.22,6.41,19.61,6.53,27.54-8.21-5.31-9.62-19.07-9.42-28.85a28.8,28.8,0,0,1-7.83-5.4,17.35,17.35,0,0,1-8.57,4.12c-1.55,5-3.49,9.93-4.25,15.14-.13.09-.37.28-.49.38-1.09-4.58.85-14.26,1.79-18.84a15.09,15.09,0,0,0,10.66-6.93c1.14.61,2.5.87,3.44,1.81,6.73,7,21.34,11.26,20.42,8.57-.75-6.89-5.66-12.42-10.84-16.62-1.87-1.32-3.59-3.17-6-3.44-8.59-1.66-26-4.29-30.94,2.89-3.11,5.7-5.11,12-8.52,17.51-2.93,7.59.92,31,5.2,38.06a24.3,24.3,0,0,1,3.59,17.82c-.38,2.45-1.5,4.22-23.63,30.2-.59.67-.45,1.64-.63,2.47-1.24,10-3.9,33,.69,41.92,4.22,11.33,8.4,22.67,12.85,33.91,2-1.82,2.74-4.49,3.95-6.82,18.71-38.73,17.83-31.81,21.79-38.72,4.31-6.93,7-14.7,11.29-21.66,1.32-2.38,3.76-3.75,5.53-5.75a104.62,104.62,0,0,0,12.51-16.22c3.84-6.79.48-4.57,6.36-13.43a73.59,73.59,0,0,1,7.73-9.7c-2.81.16-6.05-.58-7.56-3.18a26.42,26.42,0,0,0,9,1.77c2.21-2.19,5.76-.29,9.07-9.53,3.16-9.32,1.26-13.58,4.42-41.53,1.11-9.5,2.46-19,4.45-28.36a4.59,4.59,0,0,1-3.69.37,12.46,12.46,0,0,1-5.93-5.38c1.11,0,1.93,1,2.95,1.28,2.2,1.22,4.91.68,7,2.16,3.3-14.27,5-13.67,6.76-19.29.82-2.56,1.68-5.29,1.18-8-.38-2.42-4.35-4.26-10.64,1a35.48,35.48,0,0,0-9.82,15.92,68.08,68.08,0,0,0-2.93,10.93c.69,1.4,1.56,3.05.76,4.6A20.36,20.36,0,0,1,279.22,557Zm-41.79,87.76c13,2,17-1.25,24.67-6.31C257.92,648.53,244.61,651.18,237.43,644.76Z"/><path class="cls-1" d="M503.53,396.33c-2.68-4-12-8.7-17.54-7-5.12,1.55-6.52,8.17-4.51,12.78-1.48-5.89.64-11.12,5.17-12,4.84-1.06,13.34,3.62,15.58,7.39,3.07,4.91-1.38,10.42-7.6,12.73-10.89,4-22.66-4-23.67-10.71-2.14-16,38-31.58,26.05-48.39-2.05-3.11-5.11-5.67-6.05-9.4-.79-2.79.21-5.6.84-8.31,2.77-12.66,4.1-33.54-1-45.48-1.5-3.82-4.58-4.71-4.94-14.83-.15-8.07,1.48-16,3.4-23.83a84.61,84.61,0,0,0-4.44,19.55c-1.21,15.08,2.83,15.69,4.39,20.21,4.55,12.18,2.38,34.38-1,46.91-2.46,9.55,5.09,13.53,7.39,19,4.58,11.12-21.75,23.8-26.92,39.05-2.67,7.63,2.56,14.1,9.77,17.53C493.72,419,510.25,406,503.53,396.33Z"/><path class="cls-1" d="M275.12,478a2.5,2.5,0,0,0-2.87-.7c-4.66,1.63-12.67,9.57-15.33,12.69-1.53,1.09-3.21,2-4.7,3.12a49.34,49.34,0,0,0-19.74,32.6,35,35,0,0,1,16.77.67c-1.66-17.92.4-9,12.88-27.27.61-.79,1-1.8,2-2.28a42.88,42.88,0,0,0,8.82-6.8C276.81,485.8,278.4,482.11,275.12,478Z"/><path class="cls-1" d="M279.65,273c-.25-29.21,13.74-62.33,27.41-88.26,11.33-21.22,24.15-43.31,52.13-55.77,18.64-8.39,40.07-10,59.91-5.33,1.41,0,2.82-.19,4.24-.21,30.94-1.5,51.93,20.29,62.11,49.68,2.37,5.69,3.64,25.82,10.34,31.47,9,7.28,8.89,29.6,4.26,38.46-2.13,5.06-1.41,16.11-.59,21.52a40.59,40.59,0,0,1,3.67,5.51c7.13,13.84,6.33,35.16,4.38,50.51,1,2.11,8.07,12.29,4.62,30.68,36.38-26.19,51.74-77.23,52.57-121.62C560.06,148.77,510.89,91,443.12,72A161.08,161.08,0,0,0,385,66.38c-46.56,4.16-88.78,30.45-118.88,65.72-16.27,18.75-31.15,49.39-34.24,82.09-3.46,35.44,5.83,71.29,22.38,102.82a177.69,177.69,0,0,0,12.38,20.32C267.1,329,263.39,292.35,279.65,273Z"/><path class="cls-1" d="M296.64,313.55a43,43,0,0,1,4.92-9.91,16.56,16.56,0,0,0-4,3.9c-18.82,24.16-16.7,67.7-41.84,96.22,6.5-3.59,13.4-12.31,17.56-19.2C287.44,361.4,286.61,340.61,296.64,313.55Z"/><path class="cls-1" d="M411.5,611l2.18,2,1.73-2-1.71-2.12C413,609.56,412.23,610.3,411.5,611Z"/><path class="cls-1" d="M383.74,608.73c-.78,1.12-1.58,2.23-2.38,3.34,2.24,1.86,4.47,3.73,6.72,5.59,2.09-2,4.2-4,6.29-6l-4.52-3.45C387.81,608.4,385.78,608.59,383.74,608.73Z"/><path class="cls-1" d="M485.31,435.34a20.56,20.56,0,0,1-.84-7.91c-2.63-.19-5.23.36-7.85.49-17,18.08-45.8,33.14-80.07,35.76-33.75,2.18-73.47-4.14-103.09-20.56-1.88.75-4,1.11-5.49,2.6-1.54,1.31-2.07,3.32-2.63,5.18C359.7,483,436.72,471.91,485.31,435.34Z"/><path class="cls-1" d="M400.07,611.47c1.26,1,2.52,2.06,3.79,3.07,1.05-1.28,2.08-2.57,3.16-3.82l-2.93-2.93C402.74,609,401.42,610.25,400.07,611.47Z"/><path class="cls-1" d="M268,463.44c-4.6,2.67-7.6,12.54-9,17.65,6.36-6,10-8.29,14-8.73-.11-2.88,0-6-1.63-8.53C270.7,462.68,269.09,462.9,268,463.44Z"/><path class="cls-1" d="M419.56,611.07c.55.74,1.1,1.47,1.67,2.2,1.42-1.64,3-3.16,4.47-4.72L423.29,607C422,608.33,420.81,609.72,419.56,611.07Z"/><path class="cls-1" d="M368.54,613.78l.88.23c2.37-.3,4.75-.63,7.1-1.08-1.47-1.42-3.16-2.58-4.73-3.87C370.72,610.64,369.54,612.15,368.54,613.78Z"/><path class="cls-1" d="M192.12,859.56c5.52,10.9,14.07,20.49,25,26.16,1-.14,2-.69,2.94-.34,8.68,2.7,25.12-2.46,28.48-11.5.61-1.48.11-3-.19-4.52,2.13-.77,4.56-1.49,5.75-3.61,2.17-3.6,2.42-7.93,3.77-11.84.67-2.45,2.24-4.55,2.66-7.07,2.43-11.37,3.57-31,3.9-42.62.57-29.76-2.16-27.22-2.95-32.65-2.42-14-.07-43.79.74-63.57.29-8.4,1.23-16.72-6.55-36.25-.95,1-2.11,1.78-3.06,2.78-3.75,4.72-7.68,16.45-13.67,25.16-2.49,3.71-2.29,1.43-10.6,16.93a5.92,5.92,0,0,0-1,2.64c-.91,17.87,5.83,13.76,5.57,37.63-.56,22.88-5.8,37.13.81,62.54.35,7.52,1.51,24.19,8.17,27.88.7.26,10.84,3.49,9.42,6.91a3,3,0,0,1-3.66,1.39,15.32,15.32,0,0,1-6.34-4c-5-5.07-5.28-8.86-7-16.19-7.11-32.42-9.34-47.94-11.2-51.2a256.6,256.6,0,0,1-13.26-33.92c-.4-1-.29-2.37-1.39-2.87-10.7-27.78-16.12-42.14-16.12-42.14-3.34-10.85-1-33,.64-44.28,0-.66.52-1.1.87-1.59-.2-4.7-.41-9.56,1.18-14.06,2.37-6.9,8.27-7.76,15.1-5.12,1.75-2.22,3.55-4.39,5.24-6.66-5.42-3.62-11.93-6.28-18.55-5.48a22.51,22.51,0,0,0-8.18,2.93c-9.24-4.62-22.63-7.14-29.2.89,5.07-.09,10.3.32,15,2.36-13.29,3.32-28,1.81-33.14,7.07.23-2.75,2.43-4.77,4.67-6.08,4-2.29,8.61-3.08,13.13-3.37,6-8.83,19.14-7.92,29.36-4.5,8.78-5.91,19.29-4.38,28.8.25A20.32,20.32,0,0,0,214,616.82c-5.08-7.63-9.4-34.05-5.63-42.74,3.63-6.17,6-13,9.26-19.34-2.09-12,1.72-20.81,9.86-26.84a53.82,53.82,0,0,1,23.89-40c.52-.47,1.48-.67,1.59-1.46a89.65,89.65,0,0,1,5.08-17.15,23.37,23.37,0,0,0-2.16,4c-2.89,11.88-32.39,40.42-46.27,69-7.7,15.79-26.13,41.47-37.34,55.1-10.84,12.56-4.8,3.1-18.06,18-14.9,17.44-15,23-16.24,26.67-5.56,17-11.07,30.15-11.49,32.91-7.87,39.65-.16,76.6-2,109.82-.72,18.8,2,45.52,4.68,64.53,3.1,20.74,2.95,17.52,6.54,22.11,6.19,7,16.25,16.94,24.5,21.23,3.63,1.93,7.89,1.41,11.83,1.21,12.62-1.11,25-3.73,37.42-6.4A62.53,62.53,0,0,1,192.12,859.56Zm21.39-58.81c.09,6.62-4,21.24-.57,32.92,3.58,9.67,12.84,37.57,26.17,36.9a12.35,12.35,0,0,0,4.4-1.18c-2.74,2.66-7,3.1-10.51,1.91-9.77-3.35-17-16.12-21.48-25.51-4.54-10.42-6.68-14-6.07-27.61.33-7.81,2.78-15.42,2.23-23.28-.69-14.78-4.85-29.09-9-43.2C206.64,765.13,213.79,785,213.51,800.75Zm-70.77-3.38c-4.15-26.41,7.58-77.57-.76-99.79-5.52-15.48-1.53-34.13,4.1-49.63-5.52,5.49-11,18.34-14,25.57.83-4.11,4.72-16.38,9.38-24,4.46-6.91,6.76-6.18,9.93-6.4a119.07,119.07,0,0,0-7,27.62c-2.45,21.78,3.46,23.54,4.76,37.22C152,735.13,142.56,773.29,142.74,797.37Zm11.08-134.74a21.75,21.75,0,0,1,.7-8.94,15.1,15.1,0,0,1,12.1-10.53c-13.57,13.8-.89,18.35-10.35,34.05-1.56,2.78-4,5.37-3.79,8.79C148.06,681.19,154.64,673.35,153.82,662.63Zm4.93,115.09c.51,13.15-4.76,53.29,4.38,74.74C149.41,837.56,151.35,800.25,158.75,777.72Zm8.31-75.17c-.52,22.67-.93,64.28,7.33,84.74-15.49-18.58-17-67.36-14.53-88.13,1.45-9.31,3.18-18.58,4-28,.56-8.42,6.6-15.57,13.73-19.54-4.72,5.14-9.14,11.46-9.05,18.74C169.39,685.11,167.33,696,167.06,702.55Z"/><path class="cls-1" d="M358.47,614.37l2.71,2.25c.59-.79,1.2-1.56,1.82-2.33l-1.78-1.11C360.29,613.56,359.39,614,358.47,614.37Z"/><path class="cls-1" d="M470.19,180.13c4.63,5.81,8.1,12.4,11.79,18.81-5-16.43-14.42-30.64-29.93-38.17-8.89-4-22.72-8.5-25.63-13.29.89,3.51,6.93,7.08,10.3,9.05C446.56,162.4,457.75,164.13,470.19,180.13Z"/><path class="cls-1" d="M279.08,448c-1.52-1-2.84-2.34-4.26-3.51C276,446.67,275,446.05,279.08,448Z"/><path class="cls-1" d="M290,407.8c6.17-5.07,12.37-10.13,18.2-15.59-6.65,4.52-13,9.51-19.34,14.44-14.51,10.93-16.75,25.35-4.3,29.06-2.4-1.34-4.86-2.93-6.07-5.5C274.69,423,283.35,413,290,407.8Z"/><path class="cls-1" d="M314.51,248.46c2.85-3.18,14.23-13.79,14.77-29.29-2.18-17.73,5.31-35.45,18-48.16,13.14-13.52,83.89,3,71.11-31.44.41,2.17,3.1,10.91-3.84,16.09-12.89,10.1-57.3,1.9-69,12.87-13.6,13.13-21.62,31.13-19.3,50.63-.14,6-2.36,11.87-5.4,17-3.38,5.79-39.28,44.39-39.79,63.07C283.07,285.27,305.39,258.71,314.51,248.46Z"/><path class="cls-1" d="M393.88,144.28c6-2.8,12-5.73,17.3-9.68-16.24,8.78-34.1,14.14-52.14,17.72-27.56,5.23-49.82,51.45-57.73,77.78,3-6.59,14.63-34.68,31.62-55.55C354.16,149.13,359.9,159.52,393.88,144.28Z"/><path class="cls-1" d="M385.74,248.88a33,33,0,0,0-3.83-2.38,6.77,6.77,0,0,1-1.86,3.92,5.46,5.46,0,0,1-7.41-.66,7.13,7.13,0,0,1-1.29-4.54,22.82,22.82,0,0,0-3.4,1.28C369.41,258.5,381,257.76,385.74,248.88Z"/><path class="cls-1" d="M511,444.9c-1.82,12.64-3.64,33.92-1.65,47.83,1.07,8.53,3.5,4.58,4.9,42.73.65,26.71.18,40.06.94,47.58l-.88.24c29.13,10.51,48.2,10.5,66.32,26.93a74.26,74.26,0,0,0,8.53,6.45,76,76,0,0,1,.46-16.92c.34-2.07.27-4.33,1.49-6.14A61.46,61.46,0,0,0,598,564.81c3.5-12.76,4.65-75.71,4.86-88.88a14.19,14.19,0,0,1-1.42-4.93c-.45-6.93-3-13.93-7.87-19-9.25-5.36-36.1-20.21-57.31-37.2-2.35,5.17-7,9.43-12.68,10.44C522.93,433.36,517.05,439.43,511,444.9Zm25.27-22.77c11.43,5.87,54.29,27.78,49.08,39.59-1.09,2.39-3.69,3.43-6,4.17-7.25,3.1-8.54,22-8.9,29.89-.76,9.53-3.61,44-13,46.15,6.68-16,4-38.06-.52-54.73-8.33-29.84-17.39-31.09-16.92-39.89,0-3.86,4.51-5,3.73-7.34-1.05-2.35-3.44-3.63-5.21-5.37C532.69,428.86,533.48,424.58,536.26,422.13Zm-4.93,34c11.39,28.57,4.88,70.84-1.91,100.75C529.42,556.9,533.18,518,531.33,456.15Zm-11.93-6.53a43.19,43.19,0,0,0-.74-9.43c6.39,7,5.67,27.13,5.05,36.24-2.78,34.47-7.54,42.66-5.36,55.59-.73-2.26-.55-4.65-.83-7C512.84,467.87,519.73,482.66,519.4,449.62Z"/><path class="cls-1" d="M499.91,377.61c6.75,6,12.43,13.69,14.16,22.69,1.41,6.62-.11,13.42-2.4,19.66-1.87,5-5.59,12.65-10.7,11.06-4.93-1.42-6.41-6.22-2.31-10.44,1.13-1.06,2.55-2.17,4.2-2,1.29.28,1.54,1.69,2,2.73-.11-1.18-.24-2.67-1.46-3.24-3.33-1.52-9.75,3.29-9.06,9,.92,5.8,9.95,11.19,16.64,1.47,3.48-5.08,7.23-15.76,6.57-24C516.78,393.35,509.45,383.22,499.91,377.61Z"/><path class="cls-1" d="M312.19,319.13c-1.44,24.15-4.55,53.29-12.4,75.43C314.62,370.29,314.28,329.2,312.19,319.13Z"/><path class="cls-1" d="M387,249.89c-5.36,9.51-18.51,10.45-20.56-2.59a32,32,0,0,0-5.26,4.24c7.85,8.52,19.41,8.3,30.36,3.06A41.23,41.23,0,0,0,387,249.89Z"/><path class="cls-1" d="M475.59,339.83a120.07,120.07,0,0,0-.85-26.86c-1.37,48.53-9.78,52.65-13.09,62.9-3.74,10.33-2.6,22.83,4.4,31.54A36.08,36.08,0,0,1,463.92,378C466.91,369.57,473.57,363.79,475.59,339.83Z"/><path class="cls-1" d="M469.57,426.23c-6.43-3.47-8.29-10.43-10.44-16.24-1.92-5.48-10.52-7.3-16-11.88-5-4.48-2.61-18.11-1.3-24.76-2.53.13-4.67,1.67-7.19,1.76a11.2,11.2,0,0,1-4.35,4.18c-3.75,2.35.59,7.8-12.87,8.1-1.26,1.83-1.8,4.2-3.68,5.56-1.92,1.67-4.72,2.15-6.22,4.31-2.72,3.81-7.59.72-9,.07-2.25-1.08-4.31.93-7.58-7.48-3.07,3.34-5.29,6.89-13.69,6a12,12,0,0,1-5.71-2.59c-2-1.71-1.24-4.69-2.62-6.71-1.45-.76-3.48-.13-4.63-1.51-1.24-2.11-.2-4.77-1.26-6.93-.34-.18-.66-.36-1-.56l1.19.12a6.15,6.15,0,0,0-4.93-2.13c-1.53.16-2.6,1.37-3.95,2-3.8,1.64-5-7.39-6-10.29-1.11-3.09-5.09-3.15-6.88-5.64-1-1.42-.8-3.25-1-4.88-.52-2.24-2.59-3.63-3.68-5.57-1.29-2.45-4.13-3.32-5.91-5.3a7.08,7.08,0,0,1-1.9-7l-1.32-.94s.25,13.92.29,43.42c-.48,12.78.35,14.34-5,21-6.94,8.35-17.88,16.25-23.65,23.62-2.85,3.33-2,8-2.22,12a129.12,129.12,0,0,0,12.67,6.07c1.83.83,95.08,11.44,136.86-1.46C448.52,442,459.85,435.52,469.57,426.23ZM326,414.06c7.84,14.83,18.26,19.13,24.24,22.71C336.41,435.92,326.22,424.11,326,414.06Zm106.69,13.46c5.36-5.77,7.89-13.49,12.66-19.69C445.09,415.41,440,426.24,432.65,427.52Z"/><path class="cls-1" d="M433.64,448.94c-45,6.24-85.67,1.56-110.54,0C356.94,459.33,399.16,462.31,433.64,448.94Z"/><path class="cls-1" d="M439.83,265.58c5.3,1.9,12.12-.07,12.67-6.27a18.08,18.08,0,0,0-3.56-2.18c-.2,1.76-.41,3.9-2.07,4.93a8.38,8.38,0,0,1-5.21.76c-2.48-.91-2.91-3.95-3.2-6.23l-1.84.45C436.18,260.1,436.77,264.06,439.83,265.58Z"/><path class="cls-1" d="M397.22,586.56c4.24-3.92,10.1-5.36,15.67-6.17,1.76,0,11.2-8.75,11.14-21.29,0-6.7-6-8.35-7.31-16.72-3.58,2-5,6.42-4.34,10.33-1,.2-2,.41-3,.64a53.61,53.61,0,0,1-2.06-15c-2.55,3-6.66,8.45-5.5,12.22,1.43,5.88-2.89,11.89-7.75,15.57-2.8-5.3-7.56-15.44-9-21.35-5.64,7.28-1.15,10-2.78,13-.82,1.24-2.61,1.06-3.62.18a18.2,18.2,0,0,1-4.81-6.77c-2.35,6.79-1,14.52,5.8,21.32C385,577.83,390.67,582.85,397.22,586.56Z"/><path class="cls-1" d="M437.36,265.75c-2.15-2.1-2.48-5.3-2.45-8.14a37.43,37.43,0,0,0-5.61,2.58c1.8,3.67,5.49,5.88,8.93,7.82a14.24,14.24,0,0,0,8.45,1.46c3.76-.21,7.69-.88,10.82-3.11a22.3,22.3,0,0,0-3.58-5.66C452.25,268.55,441.12,269.51,437.36,265.75Z"/><path class="cls-1" d="M318.51,301.93a48.58,48.58,0,0,1,5.21-1.8l.48.48c-.42,1.05-1,2-1.52,3,9.63,13.38,6.23,14.59,11.59,22.05,3.59-.35,6.72,2.23,8.55,5.09a4.5,4.5,0,0,0,2.53,1.69,27.93,27.93,0,0,1,1.77-3.28c1.13-1.41,3-1.57,4.52-2.43,3.61-1.92,7.21-4,11.2-5a4.19,4.19,0,0,0,2.83-2.78c.7-1.52,2.64-1.17,3.84-2,2.43-1.21,4.82-3.22,7.71-2.73,3.63-.09,7.24-1.14,10.89-.6a67.9,67.9,0,0,0,7.39.58c.7,0,1.14.55,1.58,1-1.33-1.07-3-.42-4.54-.43a7.25,7.25,0,0,1,1.89.46,13.55,13.55,0,0,0-3,.71c-1.51.65-2.75,2-4.46,2.1-1.05.19-2.32-.05-3.05.91-1.32,1.44-3.31,1.75-5.16,1.92-1.32,0-2,1.3-3.1,1.86-1.27.64-2.77.72-4,1.39-1.67,1.15-1.62,3.73-3.55,4.64-3.4,1.66-5.85,4.72-9.29,6.3-2.19,1.19-4.7,1.4-7.08,2,1.36-1.17,3.16-1.57,4.65-2.53,3.91-2.22,6.35-6.24,10.25-8.47,1-1.44,1.37-3.41,3-4.42,1.63-1.38,4.12-.91,5.63-2.47,1.42-1.38,3.53-1.13,5.34-1.35,1.29-.13,2.09-1.32,3.29-1.67s2.65.27,3.94-.13c1-.28,1.95-.68,2.95-.94-7.92-.34-10,1.86-14.92,1.94-2.45,1.18-4.42,3.18-7,4.12-1.94,4-3.19,3.77-7.05,5.52-3.68,1.61-6.86,4.16-10.51,5.82-1,1.87-2,6.28-7.66,5.19,1.57,1.33,3.28,2.7,5.38,3s4.26.34,5.73,1.9c1.21,1.37,2.39,3.29,1.65,5.17-.27.93-1.18,2-.3,2.9,2.41,2.67,5.86,4.14,8.48,6.59a13.48,13.48,0,0,1,1.9,2.81c1.55.36,3.4.31,4.5,1.67,1.92,2.23,1.39,5.35,1.72,8.05,2.15.51,4.6,0,6.45,1.51a6.87,6.87,0,0,1,3.27,5.91c1.75-.34,3-1.81,4.62-2.31,1.68-.33,2.51,1.4,3.21,2.59,1.24-.22,2.58-.79,3.8-.15,2.23,1.06,2.85,3.88,5,5,2.13-.3,4.12-5.92,8.6-5.56-5.12.62-5.74,8-9.32,6.8-2.23-.83-3.08-3.41-5.12-4.51-1.06,0-2,.66-3.09.56-1.34,0-2-1.31-2.72-2.24a10.64,10.64,0,0,1-4.63,2.47,2.51,2.51,0,0,1-2.48-.74c-1-1.24-.5-3.05-1.5-4.28-2.71-3.09-6.29-.46-8.49-3.13-1.71-2.24-.29-5.3-1.49-7.72-1-1.06-2.7-.56-3.85-1.39-1.47-.8-1.45-2.8-2.78-3.75-4.17-3.44-8.23-5.69-8.7-8.55-.28-1.42.73-2.59,1.14-3.85a5.15,5.15,0,0,0-1.71-3.15c-2.17-1.32-5-1-7.05-2.63-1.84-1.12-2.79-3.27-4.79-4.14-1.76-.87-2.8-2.55-4-4,1.2,9,4,6.67,5.73,10.24,2-2,7.48,3.7,7.18,10.14,1.94,1,4.17,1.81,5.58,3.59,1.19,1.51,1.24,3.56,2.3,5.13,2.07,1.78,5.12.93,6.54,5.93,2.69,1.43,5.22,1.24,8.06,10.7.68,2.35,2.55,4,4.29,5.63a24,24,0,0,0,2.89,2.63c3.41-.58,8.88-5.14,12.45-3.8-4.17.51-8.42,6.19-12.06,6.87-1.83.33-3.34-.91-4.67-2-1.87-1.52-4-2.83-5.4-4.8-2.12-2.71-2.39-6.37-4.52-9.07-1.2-1.52-3.46-1.52-4.66-3-.91-.83-.82-2.21-1.48-3.14-1.54-.89-3.34-1.43-4.52-2.84-1.6-1.65-1.59-4.09-2.46-6.09-1.35-1.78-3.93-2.28-5-4.34-.56-1.52.22-3.15-.11-4.72-.38-2.32-.9-4.95-2.89-6.47l.34-.22a3.34,3.34,0,0,0-1.75.32,5.64,5.64,0,0,1,.9,3,15.31,15.31,0,0,0-2.58-3.29c-1.84-1.62-6.22-3.1-4.38-10.49l-1.12-.75a5,5,0,0,1-5.25-1.37,10.5,10.5,0,0,1,.58,3.05c3.61,2.45,3.79,3.72,3.16,8,1.19,1.92,3.32,2.9,4.83,4.52,1.25,1.14,1.83,2.79,2.83,4.13,3.44,4.75,2.95,5,3,9.32,1.82,1.58,4.27,2.44,5.61,4.54,2.29,3.49,1.1,8,3.17,11.64.63-.34,1.26-.7,1.93-1a6.61,6.61,0,0,1,7.72,1.87c1.05,1.29.67,3,1.12,4.53.32,1.09.16,2.43.95,3.32,2.15,1.1,4.87-1.78,6.71,4.29.37,1.14.63,2.62,2,3,2.62,1.52,5.89,1.28,8.64.24,3.43-1.63,4.65-5.71,7.72-7.79a2.75,2.75,0,0,1,3.58.83c1.34,2.15,1.78,4.85,3.55,6.73a19.75,19.75,0,0,1,5.72,1.9c1.5-2.12,3.86-3.26,6-4.58,1.28-.65,1.5-2.18,2.19-3.3,3.49-6.53,5.63-3.31,10.82-4.95A12,12,0,0,1,426.8,374c.82-.6,1.87-1,2.29-2,2.26-4.58,4.87-2.53,6.63-3.44a20.09,20.09,0,0,1,4-1.08c.9-.85,2.13-1.54,2.55-2.78,4.29-11.39,1.55-6.4,4.62-10.7a36.59,36.59,0,0,0-4.1-4c-2.7-2-9.92-3-9.21-7,.2-1.22-.79-2.15-1.26-3.17-1.39-2.49-1.33-5.42-2.19-8.06-.43-1.61-2.4-1.83-3.2-3.16-1.33-1.71-1.19-4-2.25-5.86-.83-1.3-2.48-1.41-3.77-2-2-.75-3.5-2.24-5.18-3.43-1.1-.85-2.54-.61-3.8-1a8.37,8.37,0,0,0-4.1.06c2.17-1.28,4.7-.66,7.07-.75,2,.3,3.55,1.92,5.44,2.63,1.9.87,4.22.71,5.84,2.15s2,3.51,2.86,5.33c.58,1.37,2.29,1.49,3.21,2.53,1.94,2,2.18,4.85,3,7.35s3.07,4.2,3.1,6.91c3.52,1.9,5.45.29,12.54,7.54A293.35,293.35,0,0,0,459,320.47a11.51,11.51,0,0,1,1.74-4.24c7.43-15.05,10.26-39,10.91-55.61.35-1.95.86-3.87,1.26-5.81a36.56,36.56,0,0,0-20.35-12.24c-13-2.78-17.65,1.29-23.32,0a1.46,1.46,0,0,1-.73-2.37,10.65,10.65,0,0,1,5.42-4.34c6-2.08,18.76-1.66,28.22,2.44,5.44,2.4,9.37,7.36,11.5,12.8,2-11.35,3.34-23,1.87-34.5a24.81,24.81,0,0,0-.88-4.38c-3.21-3.34-5.25-7.55-7.26-11.67-3.28-7.51-10.58-19.47-18.71-20.43a56,56,0,0,1-8.92-2.23,186.19,186.19,0,0,1-22.07-9.27,71.79,71.79,0,0,1-10,2c-9,1.3-18,2.14-27.05,2.9-2.69.25-5.44.24-8.05,1-20,4.83-30.18,20.66-30.86,41.19-.15,2.85.45,5.76-.4,8.55-1.64,6.31-7.77,9.91-10.38,15.7-1.48,3.08-1.64,3.89-4.71,36.29a3.82,3.82,0,0,1-4.55,3.35c-2.23-.52-3.48-2.63-4.69-4.37-1,2.08-2.15,4.11-3.2,6.18-1.24,2.44-6.64,10.15-1.47,19C313.82,302.28,316.56,300.91,318.51,301.93Zm40.87-50a12.57,12.57,0,0,0-2.45,1.5c.72-1.6,2.39-2.37,3.33-3.79,9.75-12.48,24-10.85,31.07,1.6a22.51,22.51,0,0,0,2.57,3.93C379.36,263.17,366.35,260.19,359.38,251.9Zm-2.22-6c9.21-12,24.67-10.9,34.69-4.21C371.53,234.38,364.38,240.68,357.16,245.94Zm38.26,5.9c-3.58-2.76-7.46-5.35-10.17-9C389,244.34,394,248,395.42,251.84Zm-9.65,48.26a32.3,32.3,0,0,0,2.34,3.38A2.66,2.66,0,0,1,385.77,300.1Zm-1.95-39c2.67-1.57,5.37-3.25,8.45-3.88C390.43,259.83,387.06,261.7,383.82,261.09Zm15.81,56a17.43,17.43,0,0,1-12.06,4.49C391.39,319.64,395.37,317.79,399.63,317.09Zm-16.86,7.71c-5.16,2.11-9.71,5.36-14.34,8.4C371,328.72,377.31,324.47,382.77,324.8ZM421,350.55c.48-1.35,1.72-2.3,2-3.74.4-1.12.05-2.29,0-3.44-.1-1,1-1.29,1.43-2a17.57,17.57,0,0,0,.24-3.16c.9,1.52,1.76,3.93,0,5.17C425.39,348.26,423.33,349,421,350.55Zm.49-18.17a33.94,33.94,0,0,1-2.58-2.65,11.48,11.48,0,0,1,8.51,9C425.44,336.63,423.65,334.34,421.52,332.38Zm-25.89,33.73a18.38,18.38,0,0,1,4.24-.54c2.11-1.06,4.36-1.92,6.15-3.51,1.53-1.21,3.23-3.05,5.38-2.23a11.13,11.13,0,0,1,4.17-1.36,16.13,16.13,0,0,0-3.51,2.69c-.46.54-1.23.19-1.83.22-1.32,1.08-2.31,2.48-3.56,3.64a22.87,22.87,0,0,1-3.78,2.53,6.87,6.87,0,0,1-3.55,1.28c-3.21-.08-4.68,1.67-10.48.21-1.29-.32-1.89-1.6-2.57-2.6-1.5-2.47-4.25-3.71-6.77-4.87,6.11,0,8.09,2.88,9.9,4.82A14.78,14.78,0,0,0,395.63,366.11Zm-3.93-21c3.37-2.56,9.12-2,11.08,2.07C396.58,344.39,396.89,345.45,391.7,345.15Zm-8.08-14.52c8.7,9.11,12.25,9.88,21.17,9.69,4.11-.18,8-1.73,11.75-3.24C408.77,343.14,392.36,346.31,383.62,330.63Zm29.12,3.57c-1.42-.92-2.71-2.25-4.48-2.41-2.38,0-4.13,2.44-6.59,2-1.4-.23-2.17-1.52-3.15-2.4-4.24-3.44-8.35,1.05-13.47-.89a26.56,26.56,0,0,0-8.35-2.09c3.07-.59,6.13.35,9.07,1.16,3.43.89,6.61-1.61,10-1.05,5.08.78,4.8,4.29,7,3.64,1.92-.59,3.67-2.12,5.8-1.73,4.13.57,3.49,5,12.3,4.59A10.24,10.24,0,0,1,412.74,334.2Zm-43.47,5.23c-.24,1.1-.82,2.08-1.13,3.17a8.52,8.52,0,0,0,1.42,2.13,13.45,13.45,0,0,1,2.07,5.16c-1.11-1.44-1.88-3.14-3.2-4.42-.82-.81-1.81-1.65-1.91-2.87.16-1.63,1.31-3,1.28-4.65s-.49-5,5.21-5.74c-1.4.89-3.22,1.62-3.7,3.39C369.17,336.87,369.53,338.16,369.27,339.43Zm-1.21,18.06c-.51-1.08-.57-2.62-1.91-3a8.26,8.26,0,0,1-4.69-4.32c-.6-1.42-2.33-1.92-2.78-3.44-1.11-2.47,1.24-4.74.72-7.23-.38-1.7.87-3.08,2.19-3.92a10.7,10.7,0,0,0-1.36,2.11c-.34,1.13.37,2.21.32,3.34.06,1.64-1.06,3.22-.53,4.85.34,1.11,1.58,1.46,2.19,2.37,1,1.34,1.58,3,3,4,1,.74,2.31,1,3,2.08s.53,2.4,1.16,3.48c.77,1.36,2.2,2.14,3.23,3.28C370.94,360.13,368.88,359.38,368.06,357.49Zm72.14.27c.09,1.76.83,3.55.26,5.31-1,3.05-6.22,1.93-9.12,2.5-1.34.53-1.58,2.16-2.23,3.28-.92,2.33-3.28,3.45-4.88,5.22-1.81,2-4.36,3.09-6.17,5.07a4.53,4.53,0,0,1-4.82,1.08c-2.05,3-1.92,2.16-4.07,3.06-1.45,2.05-1.92,4.7-3.65,6.58a3.53,3.53,0,0,1-4.35.51c-1.15-.65-2.32-1.28-3.41-2-1.71-1.25-.69-3.78-2.24-5.18,1.68.49,1.83,2.37,2.79,3.54a17.65,17.65,0,0,0,4.79,1.48c2-4.22,1.51-8.27,5.76-9.36,1.59-2.75,2.25-4,5.9-3.11,1.88-2.14,4.53-3.34,6.54-5.34,1.06-1.06,2.3-1.87,3.45-2.82,1.22-1.7,1.92-3.94,3.89-5,3.42-1.95,8.91.86,9.85-.65.6-1.46.14-3.15.78-4.59.51-1.07,1.73-1.37,2.77-1.66C441.36,356.29,440.44,356.79,440.2,357.76Zm2.5-7c.42.54-.28.94-.68,1.2-1.66.8-3.57.41-5.33.76,0,1.13.37,2.48-.54,3.38-1.19,1.18-3.08.88-4.43,1.76-.57.68-.42,1.73-1,2.43-.75,1-2.29.69-3.1,1.64a6.43,6.43,0,0,1-3.85,2.06c-1.1,1.45-7.61,11.79-14,10.79-2.26-.69-4.2,1-6,2.19-2.16,1.32-3,4.33-9.18-1.73,1.86.9,3.65,2.24,5.8,2.29,2.14-1.88,4-4.25,6.8-5.25,1.32-.57,2.76.09,4.11-.31,1.78-.58,3.1-2,4.5-3.18,2.24-2,3.57-4.68,5.53-6.88.73-.91,1.93-1,3-1.34,1.27-.94,2.46-2.09,4.1-2.32a4.44,4.44,0,0,1,1.33-2.28c1.39-1.16,3.28-1,4.94-1.43.12-1.11-.17-2.59,1-3.22C438,350.46,440.61,352.27,442.7,350.78Zm-25.41-30.42c.93,1.25,2.75.59,3.85,1.59,1.6,1.56,1.37,4.62,5,7.65a12.51,12.51,0,0,1,4,6c.6,1.61-.46,3.35.27,4.94,1.65,4,7.87,7.19,5,10.42a36.17,36.17,0,0,1-3.3,2.59,2,2,0,0,1-2.89-.25,9,9,0,0,1-.91-2.83c-1.94,3.62-2.42,10.23-10.21,11-3.09,7.36-3.84,6.9-7.67,8a40.39,40.39,0,0,0-5.57,2.22c-2.64,1.17-5.7.82-8.28,2.19a11.52,11.52,0,0,1-7.55,1.17c-1.49-.41-2-2.05-2-3.42-2.47-.61-5.12-.44-7.48-1.48s-1.25-3.06-3.53-8.93c-.79.28-1.86.62-2.42-.23-1-1.8-1.49-3.82-2.7-5.49-1.27-2.16-3.28-3.83-4.24-6.16-.6-1.28.27-2.86-.67-4-.65-1-1.66-1.9-1.63-3.18s1.79-2,1-3.32a4.27,4.27,0,0,1-.29-3.51,16.72,16.72,0,0,1,4.81-6.32c-1.59,2.16-3.54,4.23-4.16,6.91-.38,1.4.89,2.46.94,3.8-.13.91-.85,1.58-1.08,2.45.26,1,1.23,1.62,1.77,2.48,1.21,1.38.15,3.45,1.38,4.83,2.27,2.83,4.89,5.5,6.23,8.94.86-.08,1.87-.2,2.47.59,1.83,2.45,2.3,5.57,3.15,8.43,2.38,1.36,5.52.42,8,1.72,1.09.64,1.32,2,1.61,3.1,3.45.26,6.2-2.27,9.55-2.58,4-.26,7.19-3,11.07-3.61,3.94-.48,3.43-7.34,6.62-7.71,6.79-.35,5.93-6.27,9-10.1a2.68,2.68,0,0,1,3.63-.74c1,.79,1,2.16,1.2,3.3.83-.53,1.66-1.08,2.46-1.66-1.5-3.05-4.69-5.12-5.42-8.6-.54-1.66.64-3.34,0-5a12,12,0,0,0-3.26-5.12c-2.1-1.93-3-4.68-3.95-7.28-.65-1.72-3-1-3.9-2.35a4.47,4.47,0,0,0-2.75-1.92A3.66,3.66,0,0,1,417.29,320.36Zm2.75,7.47c-4.49-.16-8.51-5.4-9.88-9.38C413.71,321.3,416.26,325.23,420,327.83Zm-6.88-1.77c2.07,1.52,3,4,4.28,6.14.59,1.16,2.06,1,3.12,1.39-1.13-.06-2.53.22-3.4-.7-1.33-1.55-2.21-3.44-3.65-4.9a10.72,10.72,0,0,0-7.59-2.4c-1.37,0-2.78.76-4.08.07-8-3.84-10.09.31-15.65,1.27-2.13.48-4.31.25-6.47.37,3.18-.52,6.44-1,9.33-2.48,8-4.41,10.72-1.52,14.15-.5A12.47,12.47,0,0,1,413.16,326.06Zm-8.71-11a11.29,11.29,0,0,1,1.12,5,1.31,1.31,0,0,1-1.91,1.11C402.15,320.34,402.25,316.08,404.45,315Zm23.4-51.51c2.25,1.07,3.78,3.13,5.34,5A5.76,5.76,0,0,1,427.85,263.53ZM459.47,269c-.22-.54-.45-1.07-.67-1.59-5,4-16.23,4.93-21,2.19-3.84-2.1-7.92-4.53-9.86-8.63a6.86,6.86,0,0,0-1.83,4.54c-.38-2-.35-4.63,1.43-6,2.53-1.33,4.66-3.3,7.3-4.43,9.89-4.71,20-1.61,23.34,8.63C458.66,265.37,459.83,267.05,459.47,269Zm1.92-6.63c-3.3-4.2-9.06-12-19.38-11.7-5.66.09-11,2.42-15.83,5.12C438.07,245.23,454.48,246.7,461.39,262.32Zm-32.11-13c-5.09,5.48-7.35,8.08-9.42,15.63C418.9,258.44,423.26,251.78,429.28,249.36Zm-4.42,51.56a45.27,45.27,0,0,1-5-8.06A8.43,8.43,0,0,1,424.86,300.92ZM416.59,274c-.28,7.14.72,14.28.31,21.43C415.13,289.92,414.09,279,416.59,274Zm-3.71,32.8c1.62-1,3.73-.58,5.38.16,0,.16.05.48.06.64-1.92,1.3-4.3,1.69-6.52,2.24l-.54.69C411.48,309.18,411.62,307.6,412.88,306.79Zm-3.42,4a6.7,6.7,0,0,1-6.34-1.09C405.25,309.93,407.35,310.34,409.46,310.76Zm-2.1,1.79c4.54-2.41,9.92-1.55,14.69-3.14,1.58-.49,2.26-2.09,2.79-3.5-.32,7.14-9.65,4.83-16.15,7.24-2.47,1.16-5.21-.58-6.79-2.46C403.56,311.61,405.39,312.87,407.36,312.55Zm-6.66-8a1.56,1.56,0,0,1-1.75,1.9c-8.12-1.47-7.16-3.8-4.13-4.8C397.12,300.48,400.46,301.83,400.7,304.56ZM351,236.45c3.48-6.08,9.52-11,16.62-11.94,8.05-1,20.06.5,26.81,4.67A10.14,10.14,0,0,1,399,235.5c.31,1.14-1,1.84-2,1.62-4.18-.51-7.7-3.07-11.7-4.18a37.55,37.55,0,0,0-33.87,5.48C351.08,237.85,350.43,237.15,351,236.45Z"/><path class="cls-1" d="M626,852.91a321.8,321.8,0,0,0,12.63-80.83c-.13-3.12-.52-6.21-.73-9.32l.71-.39c2.68-53.55-2.08-80.55-2.51-87.3-.19-.9.07-2-.58-2.71h-.39c-1.12,12.5-7,59.76-8.24,79.8-1.4,15.19-4.4,30.21-5,45.46-.24,5.46.76,10.91,0,16.35-.86,8.48-4.75,16.32-5.48,24.83-.62,4.82-1.67,15.47-4.88,14.64-10.45-4.59-9.56-66.26-5.63-77,.23-1.08,1.65-1,2-1.93,3.42-7.2,5.77-37.6-.33-38.18-5.13.65-10.92,4.6-12.76,1.54-1.32-2.15-.89-3.37-.21-22.1.28-5.91.27-11.89,1.58-17.69-2.78.37-5.56.61-8.35.84,0,28.61,3.21,47.7,3.12,59.54.65,16,3.39,87.45,14,99.56a25.48,25.48,0,0,0,6.1,4C619.4,865.82,624.78,858.47,626,852.91Z"/><path class="cls-1" d="M499.22,761.34c9.54-12,27.17-42.12,45.53-66.08-8.46-1.28-18.72-1.8-33.05-5C499.26,758.39,499.25,756.66,499.22,761.34Z"/><path class="cls-1" d="M635.05,671.72l.15-.16c.78-1.88-.91-10.25-1.31-12.09.27,7,.11,14-.21,21A62.81,62.81,0,0,0,635.05,671.72Z"/><path class="cls-1" d="M476.31,672.53c-6.59-5.21-13-12.8-13-21.19-7.64-4.12-22.31-10.69-17.07-21.74-8.35-5.07-7.89-11.23-.92-15.66-10.46-5.29-2.29-16,4.76-18.07,10.49-3.27,34.54-3.39,45.35-3.16a30.85,30.85,0,0,1-3.41-8.05c-2.33-9.34,4.93-14.71,10.6-8.31a19.5,19.5,0,0,0,4.55,3.53c-.75-21.77.41-64.84-4.31-80.16-3.59-13.07-2-34.73-.53-48.2-4.61,2.17-15.56,6.76-19.3,3.24-3.59-3.3.56-8.73,3.43-12.51A167.84,167.84,0,0,1,453,460.75c-61,25.26-130.17,17-181.51-9.54-2.47,2.93-4.88,5.92-7.14,9,3.8-2.87,9.62-2.85,11.92,2.71,1.49,3.44,1.4,7.3,1.4,10.95,3.81,3.58,5.17,8.77,2.34,14.32a28.55,28.55,0,0,1-6.58,7.7c-1.49,13.92-2.19,28.08,0,42a67.68,67.68,0,0,1,6.64,4.66c2.64-10.5,6.2-20.68,14.74-27.48,10.19-7.93,24.67-3.44,13.42,18.82-4,7.77-6.76,26.71-7.91,35.08-4.59,35.24-1.52,41.48-6.72,52.71-1.69,3.68-4.57,7.07-8.56,8.28-1.77,1.06-3,2.84-4.36,4.34-14.17,17.09-1.45,9.2-20.4,32.44,9.86,22.94,8.39,33.89,8.05,43.6-.88,20-3.27,52.14-.22,62.13,4.34,10.56,2.22,42.28,1.34,53.68-2.63,28.92-4.21,24.46-5.76,30-1.82,6.05-2.3,13.47-8.65,17.18-1.84,12.24-18.9,20-32.65,18.87-1.41,0-2.81-.79-4.21-.31q-12.12,2.93-24.39,5.22c2.51,1.41,5,2.89,7.46,4.36.27-.66.53-1.32.81-2,11.57,4.54,23.16,9.09,34.39,14.44,9,5,36.69,9.67,59.73,15.56,17,4.66,9.29,4.34,20.48,6.67,9.47,1.81,19.14,2.26,28.66,3.74,7.92-14.36,26.94-15.95,29.54-17.39,6-3,10-8.8,12.93-14.64,12-20.57,64.83-73.67,73-92.22a54.8,54.8,0,0,1,9.66-13.11c3.39-9.54,6.69-19.34,10.12-21.8a34.37,34.37,0,0,0,9.45-13c2.16-5.33.39-5.33,2.85-18.23,3.72-20.37,7.52-40.73,11.2-61.11C488.13,684.11,486.6,680.75,476.31,672.53ZM431.13,609.8c2.09,2.11,4.21,4.17,6.27,6.3-2.61-1.62-5.18-3.32-7.75-5-2.92,2.25-5.82,4.52-8.75,6.75-1.16-1.48-2.34-2.92-3.49-4.39l-3.71,4.12c-1.48-1.41-2.82-3-4.28-4.37-1.91,1.82-3.66,3.8-5.55,5.64-2.2-1.6-4.34-3.28-6.51-4.91-3,2.78-6,5.53-9,8.3-3-2.41-6-4.81-9-7.23a12.35,12.35,0,0,1-1.32,1.73c-2.82.48-5.66.88-8.5,1.26-1.1-.14-1.94-1-2.91-1.53-1.35,1.94-2.71,3.86-4.08,5.78-2.07-2.29-4.12-4.61-6.19-6.9-3.26,1.41-6.46,3-9.77,4.28,2.5-2.27,5-4.5,7.52-6.78-2.37-2.73-4.87-5.35-7.19-8.12,2.91,2.22,5.64,4.67,8.46,7,1.42-1.26,2.78-2.59,4.24-3.79,2,.93,3.74,2.39,5.65,3.51,2-2.58,4-5.18,6.06-7.75q3.8,3.12,7.57,6.28c1.6-1.78,3.12-3.64,4.77-5.37,2.51-.31,5.07-.25,7.6-.33,2,1.53,4,3.2,5.94,4.8,2-1.89,3.95-3.79,6-5.65q2.81,2.6,5.67,5.12c1.56-1.87,3.07-3.79,4.66-5.63,1.39,1.84,2.76,3.69,4.16,5.52,1.86-2.19,3.76-4.35,5.62-6.54,1.68,1.64,3.31,3.35,5,5,4.34-1.6,8.67-3.24,13.05-4.72C437.92,604.73,434.14,606.77,431.13,609.8Zm-68.54,27.5c-14.07,16.62-51,53-70.73,69.16C308.48,686.87,350.36,646.69,362.59,637.3ZM314.27,528.1c15.52,15,35.74,39.84,44.71,53.56C344.24,568.07,317.92,535.07,314.27,528.1Zm45.49,68.17c2.54-10.29,9.39-14.63,18.2-13.62,4,.27,12.36,3.37,17.85,7.87,2.71,2.27,4.71-3.61,14-5.56a14.74,14.74,0,0,1,11.76,2.32c1.72,1.35,9.22,5.76,9.24,15.29-1,.48-1.9,1-2.82,1.54-1.88-1.3-3.64-2.75-5.46-4.1-1.67,1.87-3.27,3.8-4.94,5.67-1.66-1.87-3.25-3.79-4.91-5.65-1.47,2-2.91,4-4.38,5.91-2.34-1.62-4.64-3.27-7-4.9-2.92,2.88-3.3,3.75-4.56,4.52-1.76-1.1-3.36-2.43-5.13-3.51-2.81,0-5.61.13-8.42.26-1.42,1.8-2.73,3.67-4.19,5.43-2.66-2.24-5.33-4.46-8-6.7q-3.11,4-6.19,8l-6.28-2.62C358.86,603,358.84,599.58,359.76,596.27ZM505.38,556.1c-15.73,12.18-52.2,31.52-69.66,37.46C452.14,581,488.41,561.78,505.38,556.1Zm-70.09,27.06c15.78-13,50.83-34.25,59.78-37.93C479.55,558.08,443.25,580.09,435.29,583.16Zm67-73.13c-13.25,17.12-50.71,54.86-73.77,72.73C449,557.22,487.53,521,502.26,510Zm-69.6,55.68c10.46-14.5,38.29-43.63,49-52.14C471.2,528,444.18,556.38,432.66,565.71ZM427,552.78c11.47-21.41,34.79-54.22,51.94-72.78C474.76,489.72,447.11,531.49,427,552.78Zm30.25-66.58c-5.28,11.2-20,33.87-31.79,46.94C431.1,521.38,445.48,499.32,457.22,486.2ZM435,477.89c-2.34,14.17-10.75,36.16-19.71,50C416,518.28,426,490.87,435,477.89Zm-19.74,4.24c-.05,8.25-3.67,25.84-8.84,37C406.88,507,411.28,490.46,415.23,482.13Zm-24.83-4.21c4,11.88,4.05,29.27,1.57,39.2C387.88,504.64,388,487.12,390.4,477.92Zm-16.06,11.31c3.81,10.63,5.81,26.62,5.28,36.57C377.23,520.41,373.61,502.87,374.34,489.23Zm.15,57.09a2,2,0,0,1,1.88,1.86A13.8,13.8,0,0,0,379.1,554c-1-6.67,4.08-12.49,6.3-13.55a1.65,1.65,0,0,1,2.34,1.1c.39,3.92,2,7.58,3.43,11.19-.15-5.22-.32-10.44-.59-15.65-1.91-.33-3.8-.68-5.69-1,0-1.84-.15-3.68-.23-5.52h4.66c.09-1.45.19-2.91.23-4.36,1.94,0,3.88,0,5.82,0,.26,1.44.52,2.9.78,4.36,1.89.19,3.8.36,5.7.52,0,1.68,0,3.36,0,5.05-1.81.22-3.61.49-5.41.75,0,7.51,0,15,0,22.52,5.66-8-.78-7.92,3.95-16.67,2.79-5.07,6.9-9.25,11.25-13a42.24,42.24,0,0,0-.95,14.56,12,12,0,0,1,8.81-6c.15,3.34.66,6.82,2.7,9.58,2.13,2.91,4.53,5.9,4.82,9.65,1,11.76-6.44,22.19-12.2,25.78-3.77.62-13.75,1.91-16.55,7.28-8.79-3.81-19.8-14.22-23.61-18.87C366.11,561,370.4,546.23,374.49,546.32Zm-5.19-2.84c-10.66-15.31-24.68-46.5-28.6-62.43C350.91,495.73,364.79,526,369.3,543.48ZM363.1,559c-13-18.73-28.4-47.84-34.36-62.5C340.34,512.38,360.05,550,363.1,559Zm-64.75-71.88c22.32,23.91,63.13,83.28,67.24,92.71C341.53,552.78,309.11,506.51,298.35,487.15Zm52.89,99.14c-11.52-5.75-31-19.59-41.16-29.67C321.87,562.49,341.27,576.43,351.24,586.29Zm2,12.92c-16.21-5.76-40.17-21.07-48.89-29.68C322.27,575.92,346.13,592,353.27,599.21Zm-9.33,5.52c-5.25.25-27.33-5.34-38.63-11.35,9.92,1,25.05,5,38.23,11.12C343.64,604.51,344.45,604.54,343.94,604.73Zm-.44,10.43c-13,3.74-34.08,4.23-45.89,1.53C311.84,612.77,332.52,612.67,343.5,615.16Zm7.78,8.76c-13.67,5-43.07,12-63.46,14.06C301,633.12,331.15,625.93,351.28,623.92ZM268.65,672.7C287.49,658.33,331.57,635.22,357,627,338,641.26,295.28,663.9,268.65,672.7Zm4.68,77.66C292.67,722,343.07,664.9,368.77,642,351.29,667.93,299.88,726.71,273.33,750.36ZM371.84,649.1c-4.65,9.78-52.89,77.77-64.19,89.7C311.82,731,343.71,683.49,371.84,649.1Zm-80.3,204.14c16.81-47.88,64.28-154.44,89.61-201C367.71,692.37,314.93,811.29,291.54,853.24Zm89.46-186c-.16,5.15-14.36,69.46-28.43,112.22C356.78,756.08,364.8,721.61,381,667.24Zm-6.73,154.53c2.81-65.37,11.2-147.71,14.11-166.41C385.75,721.55,376.42,810.25,374.27,821.77Zm15.54,67.15c-3.18-84.91,2.35-204.1,5.82-232C399.19,742.19,392.59,871.31,389.81,888.92ZM379.13,642.06a168.79,168.79,0,0,1-13.39-16.32c2.12-2,4.15-4,6.27-6,2.08-.29,4.17-.54,6.25-.8q4.37,4.41,8.77,8.78c3.44-3.47,6.89-6.91,10.34-10.36,2.43,1.72,4.84,3.45,7.27,5.18,1.6-1.82,3.25-3.6,4.86-5.4,3.82,1.41,7.6,2.92,11.41,4.38,2.79-2.17,5.55-4.37,8.35-6.51,1.12,1.5,2,3.58.87,5.35a51.84,51.84,0,0,1-11.63,14.85c-10.87,12.18-11.82,19.84-18,20.07C393.11,654.9,388.83,652,379.13,642.06Zm24.68,29.33c8.05,31.57,19.77,94.45,24.45,129.81C420.2,771.1,407.66,703.25,403.81,671.39Zm5.2-14.51c18.34,41.91,41.17,116.91,46.55,145.54C436.78,760.71,411.31,674,409,656.88Zm7.16,6.78c11.48,17.64,38.62,71.94,43.66,86.25C447.61,730.1,427.07,690.2,416.17,663.66Zm-.53-14c19.79,19.74,58.8,71.74,74.14,99.5C473.54,733.57,432.87,680.61,415.64,649.69Zm7.29-3.6c22,17.26,52,47.18,59.15,56.15C457.93,683.28,426,650.72,422.93,646.09Zm2.42-7.84C448.46,651.58,481.89,679,498.68,698,481.81,689.26,442.52,658.14,425.35,638.25Z"/><path class="cls-1" d="M629.91,860.24a19.62,19.62,0,0,1-8.78,8.2c9.11,2.55,17.7.84,25.6-7.21q-2.52-26.07-4.79-52.16C638.28,832.93,632.35,856.52,629.91,860.24Z"/><path class="cls-1" d="M687.63,669.09c3.72,10.26,7.19,20.62,10.64,31,17.68,24.13,26.16-2.8,25.39,30.45-.53,18.46,2.16,38.28-1.83,45.36,1.66,5.18,3.31,10.36,5.14,15.49,12.11-69.57,8.31-85.69,7.23-104.46-1.74-21.67-2.91-22-21-42.92-17.23-26.59-20.67-20.9-29.09-29-5.43-5.09-6.08-9.92-24.13-42.25-17.7-31.57-17.55-27.22-22.16-34.56-9.56-14.64-15.61-31.19-19.12-37.32-3.51-6.44-7.1-12.86-11.18-19-.15,3.48-.19,7-.24,10.46,4.74,13.64,9.47,30.91,6,45-3.95,17.79-7.53,18.47-8,27.61-.52,7.59-1.43,25.46,2.41,32.05.81,1.52,2.56,2.08,3.84,3.12A61.92,61.92,0,0,1,622,609.63a37.28,37.28,0,0,1,18.51,6.56c1.92,1.42,4.48,1.33,6.76,1.25,11.62-.6,17.11-12.24,42.38,2.9-2.58-1.1-5-2.45-7.66-3.46-14-5.57-19.13-2.64-26.48.45-4.63,1.95-9.91,3.19-14.87,1.81-2.05-1-4-2.36-6.11-3.22-13-5.85-25.63-2.53-34.92,8,3.49,2.47,7,5,10.5,7.38-.29-13,7.5-12.67,18.88-6.18,7.74,4.75,13.38,8.53,20.7,22.17,12,22.75,18.87,56.14,22.28,81.59,3.8,30.68,2.33,34.18-.73,41.13-1.74,3.68-6.16,11.78-9.86,10.33-2-.86-2.88-3.65-4.68-15.66-3.82-27.6-.93-42-1-49.33-.16-19-3.67-45.09-9-63.2-4.52-14.41-7-15.3-9.53-17.35-4.28-3.32-12.36-9.15-17.76-8.43-3.61.44-4.64,4.92-4.29,8.47,3.66,2.39,7.19,5,10.92,7.23-3-.87-36.24-16.93-49.63-29.27-15.15-13.51-36-15.72-56-22.41-20.87-7.1-19.35-9.86-22.86-12.25-3.6,3,2.24,12.31,3.49,14.7,1.19.5,35.45,6,49,12a159.44,159.44,0,0,0-23.75-4.52c-28.05-3.66-29.73-2.63-35.36-3-16,.22-37.7.24-42.69,5.12-1.42,1.31-3.24,2.89-3.06,5,.86,2,5.15,3.65,7,3.35,1.4,1,11.92,1.75,24,2.89,4.65.49,8.1.21,27.61,3.9,6.9,1.32,13.83,2.74,20.35,5.4-20-4.35-41-2.53-72.42-7.07-2.4.72-7.05,3-7.5,5.54.07,3.61,8.06,7.24,11.88,9.24,14.61,6.88,14,2.34,22.05,4.95s24.57,8.75,39.36,10.9a44.78,44.78,0,0,1-7.11-.83c-22.62-3.82-31.9-9.32-39.19-8.49-7.34.66-14.24-2.48-20.73-5.48-2.45,4.81,2.22,8.85,6.69,11.85,12.38,8,28.47,16.45,31.45,17.41,9.78,3.33,27.14,6.06,32.81,6.43-3.72.22-7.41-.48-11.11-.78-21.58-2.59-23.17-3.54-42-12.81,1.54,6.21,6.11,11.1,11,15,11.82,9.33,10.83,11.06,29.1,15.81,19.3,4.9,31.72,4.51,42.28,7,12.18,2.34,31.36,3.6,43.91,1.91,10.41-1,23.45,3.45,33,7.7,1.12-15,2.36-30.08,4.51-45,.11-1.37.69-2.76.25-4.12-2.2-8.17-5.74-17.28-13.11-21.41,14.62,4.77,21.3,34.17,23.89,49.42,3.08,27.16,3.26,54.58,1.92,81.85l.68-.09c2.34,27.46,10.62,125.32,14.75,152.5,6.62,36.57,1.34,32.46,3.14,47.33,1.52,14.84,10.25,18.68,15.68,21.88,9.7,5.64,23.45,13.35,33.67,16,.29-32.85.26-70.65-2.51-104.06q-2.89,3.63-5.93,7.16c2.08,16.3,6.21,59.37-6.78,69.47-3,2.36-6.1,4.71-9.74,5.91-1.74.51-4.09.64-5.2-1.09-2.83-4.33-10.91-8.9-13.36-17.78-1,2.49-1.75,5.06-2.83,7.5-.92-3.27.66-6.54,1.69-9.59.9-1.75.8-3.76,1.53-5.55,5-13.33,30.56-47.76,32.64-51,8.44-17.41,22.12-38.18,35.88-52.24,1.27-12.26-8.87-33.65-19.81-63.36C704.15,744.53,688.91,679.93,687.63,669.09Zm-140-12.53c.06-.72,24.28-11.07,54.34,8.76C597.73,665.21,556.64,662.61,547.59,656.56ZM714,685.13c-11.15.47-18.8-19-23.33-27.13-5.69-10.31-14.11-22.74-23.73-29.58,6.69,2,14.52,8.79,18.79,14.39,12.71,14.07,14.34,28.48,23.18,37.29,1.9,1.9,4.65,3.44,7.41,2.7,2.22-.48,3.93-2.06,5.54-3.57C720.46,682.36,717.49,685,714,685.13ZM682.9,632.42c6.41,5.77,15.41,20.79,34.6,30.56-6.55-.5-18.6-5.59-30-18.22-.4-.61-.69-1.38-1.45-1.6a12.11,12.11,0,0,1-.76-1.64c-1.05,0-1.35-1.22-2-1.86a74.38,74.38,0,0,0-9.78-9.9c-4.33-3.47-9.24-6.49-14.77-7.47C662.91,621.2,672.65,622.83,682.9,632.42Zm-7.16,70.27c-1.7-12.45-8.82-31.45-15.73-42-2.49-3.67-11.45-14.75-9-26.16.19,6.38,2.93,12.36,6.47,17.56,2.81,4.2,12.06,13.08,17.12,35.74C675.55,692.72,676.34,697.72,675.74,702.69Zm1.74-18.59c1.7-18-3.21-42.8-19.88-49.89,7.85-.09,18.14,6.56,22.35,22.78C682.11,664.93,681.51,677,677.48,684.1Zm9,100.36c-.91,7.61-2.57,15.1-4.2,22.59-.08-7.88,5.45-30.38,2.61-109.53a19.59,19.59,0,0,1,.13-2C689.9,727.07,689.85,759.15,686.47,784.46Zm24.3,54.68h-.14c-3.83-43.86-12-81.48-17.12-110.23C704.46,755.25,714.77,803.93,710.77,839.14Z"/><path class="cls-2" d="M732.51,803.88c5.37-27.78,12.44-72.09,10.61-100.49-1.55-20.5-1.41-28.85-4.5-37.51-4.72-12.83-17.53-23.39-20.57-28.68-4.73-7.19-12.23-17.47-19.6-21.89-8.81-5.77-9.25-4.36-14.58-14.52-44.94-86-34.62-50.7-54.48-95.72-2.33-5.78-13-25.32-19.5-32.86a4.73,4.73,0,0,1-.78-2.84,37.92,37.92,0,0,0-9.75-22.65c-1.7-2-7.33-3.9-28.81-17.41-11.27-7.15-22.41-14.58-32.61-23.21-.9-.58-.71-1.76-1-2.65-1.44-7-6.24-12.92-12.18-16.7-1.3-9.77-8.37-17.75-16.56-22.69a60.17,60.17,0,0,0,2.4-6.75c.18-.45.18-1.05.67-1.28,49.09-29.6,71.71-107.42,58.78-165.94C548.18,89.91,436.64,19.59,333.25,63.17c-23.23,9.75-44.1,24.66-61.73,42.58-10,9.73-17.91,21.3-24.8,33.35-28.76,50.74-33,108.42-5.07,165.68a203.34,203.34,0,0,0,24.18,38.32c-1.46,9.38-12.55,18.9-15.64,32.85-1.1,4.32.05,8.79-.59,13.15S247.75,398,244.35,401c-6.61,5.56-19.55,20.86-15.47,28.88-12.56,9.1-27.63,19.18-45.5,35.45-6.08,5.6-8.17,6.42-20.36,28.5-18.72,34.45-44.35,91.63-59.69,128.05-12.21,29.85-7.42,21.76-13.74,32.09-6.66,10.51-14,21.34-22,41.65-18.3,46.39-9.93,65.68-1.9,67.52a53.08,53.08,0,0,1,4.14,9.75c4.71,14.36,3.19,12.56,5.93,37.61,3,26.67,8.39,64.91,15,91,6.31,23.69,8.61,21.25,11.74,28.19,8.07,16.32,5.44,36.39,14.31,50.86,7.93,13.07,33.68,27.75,47.16,34.9q1.81,65.2,3.8,130.41c2.58-.15,5.16-.16,7.73-.25q-1.92-66.22-3.88-132.47c6,2.6,12,5.2,18.16,7.28-.49,34.33,4.59,79.21,23.33,108.11-1.69-3.9-21.91-36.39-17.14-105.92,4.64,1.64,9.39,2.94,14.1,4.34q12.21,61.56,24.39,123.1c-.11-2.2,1.44,8.12-17.84-121.27l1,.24c11.17,31.22,31,68.89,56.83,90.66-5.13-5.52-17.23-16.41-31.53-44.21a284.34,284.34,0,0,1-18.21-44.71c6.33,1.55,12.76,2.67,19.17,3.86,5.5,15.62,27.61,34.34,40.93,44.16-2.62-2.87-25.56-24.28-32.59-42.9,3.65.56,7.32,1,11,1.43,18.29,14.27,43.44,19.34,67.22,16.92-2.5-.69-29.34.77-53.44-15.85,17.83,1,35.87.45,53.41-3.13a52.89,52.89,0,0,0-5.49,0c-57.61.54-107.88-11.47-153.23-23.24-.06-.51-.12-1-.17-1.48-13.43-6.61-34.48-18.81-44.79-29.77-6.67-6.92-8.15-16.84-10.14-29-7.52-45.59-11.82-8-25.48-87.52C87,840,82.13,802.68,81.5,788.27c-.65-6.6-4.28-19.9-8.57-28.14-1.18-2.21-2.9-4.59-5.61-4.84-10-14.9,5.81-61,24.44-90.25,3.91-6.42,8.69-12.51,10.73-19.86,4.68-14.52,65.83-156.24,82.77-171,21.25-19.6,33.41-27.15,52.45-41.06,4.38-1.41,15.14-1.22,26.79-14,.17,7.68,1.7,18.1,8.19,22.29-5.4,3.76-21.47,24.77-23,31.15-2.14,8.31-27.56,34-43.24,62.47-3,5.32-6.48,15.27-29.72,46.72-16.06,21.19-14.65,16.93-18.49,20.62-7.89,7.19-20.72,22.63-24.5,32.57-3.73,12.44-8.44,24.56-12.86,36.77-8.75,40.84-.71,79.92-2.52,113.18-.73,22.33,2.85,56,6.77,78.05.71,3.21,1,6.75,3.21,9.36,4.95,53.54,8.48,47.35,10.47,50.53,2.94,4.43.69,11.79-1,16.83-1.8,8.91-4.21,22.15,3.64,29.77,4.71,4.34,4.52,11.45,34.91,30.09-9.68-7.38-23.64-17.13-29.79-28.17-2.51-4.76-9.41-7-5.61-24.82,4.5,3.13,10.85,2.66,15.17-.56,3-2.27,5.72-5.35,17-1.25,8.63,3.36,16.38,8.58,23.77,14.1-5.34-8.12-29.79-44.6-28.13-54,1.77-9,57.77,28.1,65.44,33-24.89-20.93-31.15-24.84-34.2-30.66,51.25,19.89,23.58,13.77,75.11,25.44,38.11,8.82,25,7,33.3,9.56,11.73,3.81,28.67,3.68,42.31,6.74l.12-1c4.93.77,18.37,3.11,22.31,6.28,5.62,4.32,21.72-4.51,33.2-1.45,6.7,1.64,6.88-1.35,9.22-3.77,4.44-4.87,15.22-4.73,22.36-5.65,9.5-1.18,27.7-3.45,30.45-12.57a11.73,11.73,0,0,0-2-9.43c1,2.37,2.2,4.88,1.89,7.54-1.09,12.15-29.22,12.7-41.51,13.63-14.65,1.75-13.19,6.89-16.26,8-2.26.28-4.33-.87-6.53-1.1-8.11-1.11-16.08,1.37-24.08,2.21-6.55.4-1.51-.64-12.31-4.35a145.68,145.68,0,0,0-15.3-3.85c4.08-7,13.44-10.84,21.43-12.21,14.13-3.38,20.37-19.24,22.95-22.83,16-23.07,62.67-70.4,71.09-89.11,2.48-4.43,5.34-8.8,9.37-12,7.9-23.21,7.75-19.28,10.59-22.42,5.82-5.87,10.52-13.35,11.37-21.74,17-14,37.21-47.71,46.4-67.7,2.28.48,4.56,1,6.85,1.44,2.88,14.43,1.28,27.78,1.06,33.85,2.89-10.77,5.18-21.83,5-33a221.12,221.12,0,0,0,22.86,1.47c-4,12.5-16.71,52.83-18.85,65.71-1.65,11.42,5.66,20.93,11.82,22.71,5.08,1.47,8.76-2.74,11.42-7.3,0,1.78.17,3.57.29,5.36-4.42,9.15-8.92,18.26-13.4,27.38-8.93,22.61-29.47,67.89-52.44,107-34.06,57.75-58.3,78.79-60.67,81.71a222.67,222.67,0,0,1-26.21,25.66c16.74-9,30.46-20.13,37.53-28.25,46.85-50,97.82-148.46,115.49-208.48,1.28,17.18,3.58,46.91,9.38,63.2,1.34,3.66,3,7.41,6.16,9.89-10.47,20.73-27.92,53.3-41.6,72-6,8.36-43.9,47.07-54.77,48.56,12.92,3.08,31.63,3,37.93-8.77,5.91-11.91,12-27.41,24.59-30.9,6.88-2.06,15.64-3.56,15.14-16.57,0-5.71-3.87-13.49,3-23.89,5.56-8.54,14.89-13.19,16.16-17.28,1.75-6.05,4.1-11.89,6.11-17.85a45.38,45.38,0,0,0,8.06,4.35c-5.8,6.29-10.25,13.68-14.52,21.06-7.67,13.7-15.09,28-17.62,43.67-2.89,23.32-9.64,34.2-13.87,44.26-12.65,29.38-20.1,57.72-20.66,62.05,4.27-11.41,9.64-22.37,14.83-33.39,46.57-98,18.61-54.59,33.83-95.68A349.5,349.5,0,0,1,618.06,874a42.1,42.1,0,0,0,6.28,1.57c1.11,61.57-5.29,48.33-3.39,100.56.42,11.49-8.15,19.87-5.21,38.44,2,16.66-6.46,78-17.09,95.88,9.89-11.92,22-80,19.55-97.81-2-15.06,6.29-24.38,6.42-36.09-.26-16.84.21-33.79,3.11-50.42,2.07-14.55,2.29-29.28,2.78-44,.44-2.23-.27-4.52.28-6.71a27.86,27.86,0,0,1,.09,3.3c-.22,5.53-.15,11.08-.1,16.62.86,64.75,7.4,33,4.07,70.65-.79,8.81-2.24,17.56-2.48,26.42-.8,8-2,16-2,24-.11,27.09,9.75,29.31,25.5,49.21,12,15,10.23,21.75,10.58,27.37a49.3,49.3,0,0,0,0-7.19c-1.37-11.2-9.68-21-17.59-30.22-11.64-13.75-17.41-19.25-15.85-42.65.45-8.35,2.37-16.55,2.77-24.9,1.53-14.3,4.68-28.55,4-43,0-4.15-2.1-7.88-2.41-12-1.67-15.19-.91-45-.29-58.51a35.4,35.4,0,0,0,10.43-5.6c5.27,54.87,6,47.66,7.77,62.2.57,4.66,1.2,9.37.74,14.07-.7,8.86-1.18,18.06,1.87,26.57A30.14,30.14,0,0,0,671.18,988c0,4.71-3.33,136.93-3.41,139.73,3.09.2,6.2.06,9.29.33.16-2.74,3.28-132,3.35-134.71,23.67,13.11,30.63,15,40,14.6.67-18.32.9-81-3-120.31l-1.17.06a214.36,214.36,0,0,0,20.52-35c7.13-7.82.19-30.39-5.76-49Zm-196.23-389c21.21,17,48.06,31.84,57.31,37.2,4.88,5,7.42,12,7.87,19a14.19,14.19,0,0,0,1.42,4.93c-.21,13.17-1.36,76.12-4.86,88.88a61.46,61.46,0,0,1-6.92,28.79c-1.22,1.81-1.15,4.07-1.49,6.14a76,76,0,0,0-.46,16.92,74.26,74.26,0,0,1-8.53-6.45c-18.12-16.43-37.19-16.42-66.32-26.93l.88-.24c-.76-7.52-.29-20.87-.94-47.58-1.4-38.15-3.83-34.2-4.9-42.73-2-13.91-.17-35.19,1.65-47.83,6.06-5.47,11.94-11.54,12.61-19.62C529.29,424.27,533.93,420,536.28,414.84Zm-18.75-10.26c.66,8.2-3.09,18.88-6.57,24-6.69,9.72-15.72,4.33-16.64-1.47-.69-5.67,5.73-10.48,9.06-9,1.22.57,1.35,2.06,1.46,3.24-.44-1-.69-2.45-2-2.73-1.65-.21-3.07.9-4.2,2-4.1,4.22-2.62,9,2.31,10.44,5.11,1.59,8.83-6.08,10.7-11.06,2.29-6.24,3.81-13,2.4-19.66-1.73-9-7.41-16.72-14.16-22.69C509.45,383.22,516.78,393.35,517.53,404.58ZM278.46,430.21c1.21,2.57,3.67,4.16,6.07,5.5-12.45-3.71-10.21-18.13,4.3-29.06,6.36-4.93,12.69-9.92,19.34-14.44-5.83,5.46-12,10.52-18.2,15.59C283.35,413,274.69,423,278.46,430.21Zm.62,17.81c-4.09-2-3.08-1.35-4.26-3.51C276.24,445.68,277.56,447,279.08,448Zm41.81-211.85c3-5.14,5.26-11,5.4-17-2.32-19.5,5.7-37.5,19.3-50.63,11.66-11,56.07-2.77,69-12.87,6.94-5.18,4.25-13.92,3.84-16.09,12.78,34.45-58,17.92-71.11,31.44-12.69,12.71-20.18,30.43-18,48.16-.54,15.5-11.92,26.11-14.77,29.29-9.12,10.25-31.44,36.81-33.41,50.78C281.61,280.56,317.51,242,320.89,236.17Zm-19.58-6.07c7.91-26.33,30.17-72.55,57.73-77.78,18-3.58,35.9-8.94,52.14-17.72-5.32,4-11.33,6.88-17.3,9.68-34,15.24-39.72,4.85-60.95,30.27C315.94,195.42,304.35,223.51,301.31,230.1Zm12.49,51.31c1.05-2.07,2.16-4.1,3.2-6.18,1.21,1.74,2.46,3.85,4.69,4.37a3.82,3.82,0,0,0,4.55-3.35c3.07-32.4,3.23-33.21,4.71-36.29,2.61-5.79,8.74-9.39,10.38-15.7.85-2.79.25-5.7.4-8.55.68-20.53,10.82-36.36,30.86-41.19,2.61-.77,5.36-.76,8.05-1,9-.76,18.08-1.6,27.05-2.9a71.79,71.79,0,0,0,10-2,186.19,186.19,0,0,0,22.07,9.27,56,56,0,0,0,8.92,2.23c8.13,1,15.43,12.92,18.71,20.43,2,4.12,4,8.33,7.26,11.67a24.81,24.81,0,0,1,.88,4.38c1.47,11.51.15,23.15-1.87,34.5-2.13-5.44-6.06-10.4-11.5-12.8-9.46-4.1-22.21-4.52-28.22-2.44a10.65,10.65,0,0,0-5.42,4.34,1.46,1.46,0,0,0,.73,2.37c5.67,1.34,10.3-2.73,23.32,0a36.56,36.56,0,0,1,20.35,12.24c-.4,1.94-.91,3.86-1.26,5.81-.65,16.63-3.48,40.56-10.91,55.61a11.51,11.51,0,0,0-1.74,4.24,293.35,293.35,0,0,1-8.09,29.59c-7.09-7.25-9-5.64-12.54-7.54,0-2.71-2.39-4.45-3.1-6.91s-1.08-5.38-3-7.35c-.92-1-2.63-1.16-3.21-2.53-.85-1.82-1.23-4-2.86-5.33s-3.94-1.28-5.84-2.15c-1.89-.71-3.4-2.33-5.44-2.63-2.37.09-4.9-.53-7.07.75a8.37,8.37,0,0,1,4.1-.06c1.26.36,2.7.12,3.8,1,1.68,1.19,3.21,2.68,5.18,3.43,1.29.58,2.94.69,3.77,2,1.06,1.83.92,4.15,2.25,5.86.8,1.33,2.77,1.55,3.2,3.16.86,2.64.8,5.57,2.19,8.06.47,1,1.46,2,1.26,3.17-.71,4.07,6.51,5.05,9.21,7a36.59,36.59,0,0,1,4.1,4c-3.07,4.3-.33-.69-4.62,10.7-.42,1.24-1.65,1.93-2.55,2.78a20.09,20.09,0,0,0-4,1.08c-1.76.91-4.37-1.14-6.63,3.44-.42,1-1.47,1.42-2.29,2a12,12,0,0,0-4.59,6.66c-5.19,1.64-7.33-1.58-10.82,4.95-.69,1.12-.91,2.65-2.19,3.3-2.15,1.32-4.51,2.46-6,4.58a19.75,19.75,0,0,0-5.72-1.9c-1.77-1.88-2.21-4.58-3.55-6.73a2.75,2.75,0,0,0-3.58-.83c-3.07,2.08-4.29,6.16-7.72,7.79-2.75,1-6,1.28-8.64-.24-1.33-.38-1.59-1.86-2-3-1.84-6.07-4.56-3.19-6.71-4.29-.79-.89-.63-2.23-.95-3.32-.45-1.5-.07-3.24-1.12-4.53a6.61,6.61,0,0,0-7.72-1.87c-.67.28-1.3.64-1.93,1-2.07-3.6-.88-8.15-3.17-11.64-1.34-2.1-3.79-3-5.61-4.54,0-4.34.45-4.57-3-9.32-1-1.34-1.58-3-2.83-4.13-1.51-1.62-3.64-2.6-4.83-4.52.63-4.32.45-5.59-3.16-8a10.5,10.5,0,0,0-.58-3.05,5,5,0,0,0,5.25,1.37l1.12.75c-1.84,7.39,2.54,8.87,4.38,10.49a15.31,15.31,0,0,1,2.58,3.29,5.64,5.64,0,0,0-.9-3,3.34,3.34,0,0,1,1.75-.32l-.34.22c2,1.52,2.51,4.15,2.89,6.47.33,1.57-.45,3.2.11,4.72,1,2.06,3.62,2.56,5,4.34.87,2,.86,4.44,2.46,6.09,1.18,1.41,3,1.95,4.52,2.84.66.93.57,2.31,1.48,3.14,1.2,1.52,3.46,1.52,4.66,3,2.13,2.7,2.4,6.36,4.52,9.07,1.44,2,3.53,3.28,5.4,4.8,1.33,1.06,2.84,2.3,4.67,2,3.64-.68,7.89-6.36,12.06-6.87-3.57-1.34-9,3.22-12.45,3.8a24,24,0,0,1-2.89-2.63c-1.74-1.59-3.61-3.28-4.29-5.63-2.84-9.46-5.37-9.27-8.06-10.7-1.42-5-4.47-4.15-6.54-5.93-1.06-1.57-1.11-3.62-2.3-5.13-1.41-1.78-3.64-2.56-5.58-3.59.3-6.44-5.21-12.1-7.18-10.14-1.74-3.57-4.53-1.27-5.73-10.24,1.2,1.46,2.24,3.14,4,4,2,.87,2.95,3,4.79,4.14,2,1.65,4.88,1.31,7.05,2.63a5.15,5.15,0,0,1,1.71,3.15c-.41,1.26-1.42,2.43-1.14,3.85.47,2.86,4.53,5.11,8.7,8.55,1.33.95,1.31,2.95,2.78,3.75,1.15.83,2.87.33,3.85,1.39,1.2,2.42-.22,5.48,1.49,7.72,2.2,2.67,5.78,0,8.49,3.13,1,1.23.52,3,1.5,4.28a2.51,2.51,0,0,0,2.48.74,10.64,10.64,0,0,0,4.63-2.47c.7.93,1.38,2.23,2.72,2.24,1.07.1,2-.6,3.09-.56,2,1.1,2.89,3.68,5.12,4.51,3.58,1.18,4.2-6.18,9.32-6.8-4.48-.36-6.47,5.26-8.6,5.56-2.13-1.15-2.75-4-5-5-1.22-.64-2.56-.07-3.8.15-.7-1.19-1.53-2.92-3.21-2.59-1.66.5-2.87,2-4.62,2.31a6.87,6.87,0,0,0-3.27-5.91c-1.85-1.5-4.3-1-6.45-1.51-.33-2.7.2-5.82-1.72-8.05-1.1-1.36-3-1.31-4.5-1.67a13.48,13.48,0,0,0-1.9-2.81c-2.62-2.45-6.07-3.92-8.48-6.59-.88-.89,0-2,.3-2.9.74-1.88-.44-3.8-1.65-5.17-1.47-1.56-3.76-1.57-5.73-1.9s-3.81-1.67-5.38-3c5.66,1.09,6.62-3.32,7.66-5.19,3.65-1.66,6.83-4.21,10.51-5.82,3.86-1.75,5.11-1.48,7.05-5.52,2.57-.94,4.54-2.94,7-4.12,5-.08,7-2.28,14.92-1.94-1,.26-2,.66-2.95.94-1.29.4-2.65-.31-3.94.13s-2,1.54-3.29,1.67c-1.81.22-3.92,0-5.34,1.35-1.51,1.56-4,1.09-5.63,2.47-1.59,1-1.95,3-3,4.42-3.9,2.23-6.34,6.25-10.25,8.47-1.49,1-3.29,1.36-4.65,2.53,2.38-.59,4.89-.8,7.08-2,3.44-1.58,5.89-4.64,9.29-6.3,1.93-.91,1.88-3.49,3.55-4.64,1.26-.67,2.76-.75,4-1.39,1.08-.56,1.78-1.83,3.1-1.86,1.85-.17,3.84-.48,5.16-1.92.73-1,2-.72,3.05-.91,1.71-.14,2.95-1.45,4.46-2.1a13.55,13.55,0,0,1,3-.71,7.25,7.25,0,0,0-1.89-.46c1.53,0,3.21-.64,4.54.43-.44-.46-.88-1-1.58-1a67.9,67.9,0,0,1-7.39-.58c-3.65-.54-7.26.51-10.89.6-2.89-.49-5.28,1.52-7.71,2.73-1.2.85-3.14.5-3.84,2a4.19,4.19,0,0,1-2.83,2.78c-4,1-7.59,3.08-11.2,5-1.48.86-3.39,1-4.52,2.43a27.93,27.93,0,0,0-1.77,3.28,4.5,4.5,0,0,1-2.53-1.69c-1.83-2.86-5-5.44-8.55-5.09-5.36-7.46-2-8.67-11.59-22.05.52-1,1.1-2,1.52-3l-.48-.48a48.58,48.58,0,0,0-5.21,1.8c-1.95-1-4.69.35-6.18-1.56C307.16,291.56,312.56,283.85,313.8,281.41ZM426.42,147.48c2.91,4.79,16.74,9.26,25.63,13.29C467.56,168.3,477,182.51,482,198.94c-3.69-6.41-7.16-13-11.79-18.81-12.44-16-23.63-17.73-33.47-23.6C433.35,154.56,427.31,151,426.42,147.48ZM309.74,444.05A129.12,129.12,0,0,1,297.07,438c.2-4-.63-8.69,2.22-12,5.77-7.37,16.71-15.27,23.65-23.62,5.36-6.65,4.53-8.21,5-21,0-29.5-.29-43.42-.29-43.42l1.32.94a7.08,7.08,0,0,0,1.9,7c1.78,2,4.62,2.85,5.91,5.3,1.09,1.94,3.16,3.33,3.68,5.57.18,1.63-.05,3.46,1,4.88,1.79,2.49,5.77,2.55,6.88,5.64.95,2.9,2.17,11.93,6,10.29,1.35-.59,2.42-1.8,3.95-2a6.15,6.15,0,0,1,4.93,2.13l-1.19-.12c.31.2.63.38,1,.56,1.06,2.16,0,4.82,1.26,6.93,1.15,1.38,3.18.75,4.63,1.51,1.38,2,.65,5,2.62,6.71a12,12,0,0,0,5.71,2.59c8.4.85,10.62-2.7,13.69-6,3.27,8.41,5.33,6.4,7.58,7.48,1.45.65,6.32,3.74,9-.07,1.5-2.16,4.3-2.64,6.22-4.31,1.88-1.36,2.42-3.73,3.68-5.56,13.46-.3,9.12-5.75,12.87-8.1a11.2,11.2,0,0,0,4.35-4.18c2.52-.09,4.66-1.63,7.19-1.76-1.31,6.65-3.74,20.28,1.3,24.76,5.51,4.58,14.11,6.4,16,11.88,2.15,5.81,4,12.77,10.44,16.24-9.72,9.29-21.05,15.81-23,16.36C404.82,455.49,311.57,444.88,309.74,444.05Zm123.9,4.89c-34.48,13.37-76.7,10.39-110.54,0C348,450.5,388.64,455.18,433.64,448.94Zm32.41-41.53c-7-8.71-8.14-21.21-4.4-31.54,3.31-10.25,11.72-14.37,13.09-62.9a120.07,120.07,0,0,1,.85,26.86c-2,24-8.68,29.74-11.67,38.2A36.08,36.08,0,0,0,466.05,407.41ZM312.19,319.13c2.09,10.07,2.43,51.16-12.4,75.43C307.64,372.42,310.75,343.28,312.19,319.13ZM288,445.72c1.49-1.49,3.61-1.85,5.49-2.6,29.62,16.42,69.34,22.74,103.09,20.56,34.27-2.62,63.08-17.68,80.07-35.76,2.62-.13,5.22-.68,7.85-.49a20.56,20.56,0,0,0,.84,7.91c-48.59,36.57-125.61,47.69-200,15.56C285.9,449,286.43,447,288,445.72ZM478.46,411.6c-7.21-3.43-12.44-9.9-9.77-17.53,5.17-15.25,31.5-27.93,26.92-39.05-2.3-5.52-9.85-9.5-7.39-19,3.36-12.53,5.53-34.73,1-46.91-1.56-4.52-5.6-5.13-4.39-20.21a84.61,84.61,0,0,1,4.44-19.55c-1.92,7.8-3.55,15.76-3.4,23.83.36,10.12,3.44,11,4.94,14.83,5.11,11.94,3.78,32.82,1,45.48-.63,2.71-1.63,5.52-.84,8.31.94,3.73,4,6.29,6.05,9.4C509,368,468.82,383.56,471,399.54c1,6.7,12.78,14.71,23.67,10.71,6.22-2.31,10.67-7.82,7.6-12.73-2.24-3.77-10.74-8.45-15.58-7.39-4.53.88-6.65,6.11-5.17,12-2-4.61-.61-11.23,4.51-12.78,5.51-1.72,14.86,3,17.54,7C510.25,406,493.72,419,478.46,411.6ZM254.23,317c-16.55-31.53-25.84-67.38-22.38-102.82,3.09-32.7,18-63.34,34.24-82.09C296.19,96.83,338.41,70.54,385,66.38A161.08,161.08,0,0,1,443.12,72C510.89,91,560.06,148.77,564.7,229.64c-.83,44.39-16.19,95.43-52.57,121.62,3.45-18.39-3.65-28.57-4.62-30.68,1.95-15.35,2.75-36.67-4.38-50.51a40.59,40.59,0,0,0-3.67-5.51c-.82-5.41-1.54-16.46.59-21.52,4.63-8.86,4.74-31.18-4.26-38.46-6.7-5.65-8-25.78-10.34-31.47-10.18-29.39-31.17-51.18-62.11-49.68-1.42,0-2.83.23-4.24.21-19.84-4.67-41.27-3.06-59.91,5.33-28,12.46-40.8,34.55-52.13,55.77-13.67,25.93-27.66,59-27.41,88.26-16.26,19.35-12.55,56-13,64.33A177.69,177.69,0,0,1,254.23,317Zm1.51,86.75c25.14-28.52,23-72.06,41.84-96.22a16.56,16.56,0,0,1,4-3.9,43,43,0,0,0-4.92,9.91c-10,27.06-9.2,47.85-23.34,71C269.14,391.45,262.24,400.17,255.74,403.76Zm28.39,142.51a68.08,68.08,0,0,1,2.93-10.93,35.48,35.48,0,0,1,9.82-15.92c6.29-5.23,10.26-3.39,10.64-1,.5,2.7-.36,5.43-1.18,8-1.78,5.62-3.46,5-6.76,19.29-2.1-1.48-4.81-.94-7-2.16-1-.33-1.84-1.29-2.95-1.28a12.46,12.46,0,0,0,5.93,5.38,4.59,4.59,0,0,0,3.69-.37c-2,9.37-3.34,18.86-4.45,28.36-3.16,28-1.26,32.21-4.42,41.53-3.31,9.24-6.86,7.34-9.07,9.53a26.42,26.42,0,0,1-9-1.77c1.51,2.6,4.75,3.34,7.56,3.18a73.59,73.59,0,0,0-7.73,9.7c-5.88,8.86-2.52,6.64-6.36,13.43a104.62,104.62,0,0,1-12.51,16.22c-1.77,2-4.21,3.37-5.53,5.75-4.24,7-7,14.73-11.29,21.66-4,6.91-3.08,0-21.79,38.72-1.21,2.33-1.95,5-3.95,6.82-4.45-11.24-8.63-22.58-12.85-33.91-4.59-8.87-1.93-31.88-.69-41.92.18-.83,0-1.8.63-2.47,22.13-26,23.25-27.75,23.63-30.2a24.3,24.3,0,0,0-3.59-17.82c-4.28-7-8.13-30.47-5.2-38.06,3.41-5.55,5.41-11.81,8.52-17.51,4.93-7.18,22.35-4.55,30.94-2.89,2.39.27,4.11,2.12,6,3.44,5.18,4.2,10.09,9.73,10.84,16.62.92,2.69-13.69-1.56-20.42-8.57-.94-.94-2.3-1.2-3.44-1.81a15.09,15.09,0,0,1-10.66,6.93c-.94,4.58-2.88,14.26-1.79,18.84.12-.1.36-.29.49-.38.76-5.21,2.7-10.14,4.25-15.14a17.35,17.35,0,0,0,8.57-4.12,28.8,28.8,0,0,0,7.83,5.4c-.2,9.78,1.21,23.54,9.42,28.85-.12-7.93-1.57-21.32-6.53-27.54a31.82,31.82,0,0,0,9.22,2.48c7,.49,9.33-4.61,8.2-8.49-1.35-4.65-7.77-12.53-12.51-16.25,4.3,1.9,9,4.16,13.78,2.89,1.55,4.29,4.78,12.67,9.2,13.91-3.86-2.84-4.82-10.66-5.32-15.71a20.36,20.36,0,0,0,5.67-6.13C285.69,549.32,284.82,547.67,284.13,546.27Zm-44.79,2.93c5.59-1.27,7.57-1,12.32,1.59A88.16,88.16,0,0,0,239.34,549.2Zm33.87,5.23c-6.6,1.08-20.79-10.62-27.88-10.6-6.33,0-17.49,2.72-23.58,6.6-.32-8.91,3.07-15.24,9.57-19.4,15.55-6.89,44.19,12.56,49.05,18.21C278.66,551.68,276.27,554,273.21,554.43Zm-4.95-19.68a88.06,88.06,0,0,0-14.17-6.93c-.32-3.87-.89-7.76-.42-11.63a89.74,89.74,0,0,0,12.48-14.69,5.9,5.9,0,0,1,2.22-1.86C267.33,511.31,266.92,523.09,268.26,534.75Zm-4.17-38c-.93.48-1.35,1.49-2,2.28-12.48,18.24-14.54,9.35-12.88,27.27a35,35,0,0,0-16.77-.67,49.34,49.34,0,0,1,19.74-32.6c1.49-1.16,3.17-2,4.7-3.12,2.66-3.12,10.67-11.06,15.33-12.69a2.5,2.5,0,0,1,2.87.7c3.28,4.15,1.69,7.84-2.21,12A42.88,42.88,0,0,1,264.09,496.79Zm-5-15.7c1.39-5.11,4.39-15,9-17.65,1-.54,2.66-.76,3.41.39,1.63,2.51,1.52,5.65,1.63,8.53C269.08,472.8,265.41,475.07,259.05,481.09ZM160.29,892.7c-8.25-4.29-18.31-14.18-24.5-21.23-3.59-4.59-3.44-1.37-6.54-22.11-2.67-19-5.4-45.73-4.68-64.53,1.79-33.22-5.92-70.17,2-109.82.42-2.76,5.93-15.86,11.49-32.91,1.25-3.7,1.34-9.23,16.24-26.67,13.26-14.91,7.22-5.45,18.06-18,11.21-13.63,29.64-39.31,37.34-55.1,13.88-28.54,43.38-57.08,46.27-69a23.37,23.37,0,0,1,2.16-4A89.65,89.65,0,0,0,253,486.47c-.11.79-1.07,1-1.59,1.46a53.82,53.82,0,0,0-23.89,40c-8.14,6-12,14.89-9.86,26.84-3.22,6.38-5.63,13.17-9.26,19.34-3.77,8.69.55,35.11,5.63,42.74a20.32,20.32,0,0,1,3.19,10.88c-9.51-4.63-20-6.16-28.8-.25C178.2,624,165,623.12,159.06,632c-4.52.29-9.16,1.08-13.13,3.37-2.24,1.31-4.44,3.33-4.67,6.08,5.12-5.26,19.85-3.75,33.14-7.07-4.68-2-9.91-2.45-15-2.36,6.57-8,20-5.51,29.2-.89a22.51,22.51,0,0,1,8.18-2.93c6.62-.8,13.13,1.86,18.55,5.48-1.69,2.27-3.49,4.44-5.24,6.66-6.83-2.64-12.73-1.78-15.1,5.12-1.59,4.5-1.38,9.36-1.18,14.06-.35.49-.86.93-.87,1.59-1.6,11.25-4,33.43-.64,44.28,0,0,5.42,14.36,16.12,42.14,1.1.5,1,1.89,1.39,2.87a256.6,256.6,0,0,0,13.26,33.92c1.86,3.26,4.09,18.78,11.2,51.2,1.73,7.33,2,11.12,7,16.19a15.32,15.32,0,0,0,6.34,4,3,3,0,0,0,3.66-1.39c1.42-3.42-8.72-6.65-9.42-6.91-6.66-3.69-7.82-20.36-8.17-27.88-6.61-25.41-1.37-39.66-.81-62.54.26-23.87-6.48-19.76-5.57-37.63a5.92,5.92,0,0,1,1-2.64c8.31-15.5,8.11-13.22,10.6-16.93,6-8.71,9.92-20.44,13.67-25.16,1-1,2.11-1.77,3.06-2.78,7.78,19.53,6.84,27.85,6.55,36.25-.81,19.78-3.16,49.61-.74,63.57.79,5.43,3.52,2.89,2.95,32.65-.33,11.64-1.47,31.25-3.9,42.62-.42,2.52-2,4.62-2.66,7.07-1.35,3.91-1.6,8.24-3.77,11.84-1.19,2.12-3.62,2.84-5.75,3.61.3,1.48.8,3,.19,4.52-3.36,9-19.8,14.2-28.48,11.5-1-.35-2,.2-2.94.34-10.92-5.67-19.47-15.26-25-26.16a62.53,62.53,0,0,0,17.42,28c-12.37,2.67-24.8,5.29-37.42,6.4C168.18,894.11,163.92,894.63,160.29,892.7ZM492.92,749.49c-2.46,12.9-.69,12.9-2.85,18.23a34.37,34.37,0,0,1-9.45,13c-3.43,2.46-6.73,12.26-10.12,21.8a54.8,54.8,0,0,0-9.66,13.11c-8.22,18.55-61,71.65-73,92.22-3,5.84-6.93,11.62-12.93,14.64-2.6,1.44-21.62,3-29.54,17.39-9.52-1.48-19.19-1.93-28.66-3.74-11.19-2.33-3.51-2-20.48-6.67-23-5.89-50.69-10.57-59.73-15.56-11.23-5.35-22.82-9.9-34.39-14.44-.28.64-.54,1.3-.81,2-2.48-1.47-4.95-3-7.46-4.36q12.26-2.31,24.39-5.22c1.4-.48,2.8.27,4.21.31,13.75,1.14,30.81-6.63,32.65-18.87,6.35-3.71,6.83-11.13,8.65-17.18,1.55-5.55,3.13-1.09,5.76-30,.88-11.4,3-43.12-1.34-53.68-3.05-10-.66-42.12.22-62.13.34-9.71,1.81-20.66-8.05-43.6,19-23.24,6.23-15.35,20.4-32.44,1.38-1.5,2.59-3.28,4.36-4.34,4-1.21,6.87-4.6,8.56-8.28,5.2-11.23,2.13-17.47,6.72-52.71,1.15-8.37,3.92-27.31,7.91-35.08,11.25-22.26-3.23-26.75-13.42-18.82-8.54,6.8-12.1,17-14.74,27.48a67.68,67.68,0,0,0-6.64-4.66c-2.16-13.89-1.46-28.05,0-42a28.55,28.55,0,0,0,6.58-7.7c2.83-5.55,1.47-10.74-2.34-14.32,0-3.65.09-7.51-1.4-10.95-2.3-5.56-8.12-5.58-11.92-2.71,2.26-3.09,4.67-6.08,7.14-9C322.86,477.78,392.07,486,453,460.75a167.84,167.84,0,0,0,33.44-18.5c-2.87,3.78-7,9.21-3.43,12.51,3.74,3.52,14.69-1.07,19.3-3.24-1.49,13.47-3.06,35.13.53,48.2,4.72,15.32,3.56,58.39,4.31,80.16a19.5,19.5,0,0,1-4.55-3.53c-5.67-6.4-12.93-1-10.6,8.31a30.85,30.85,0,0,0,3.41,8.05c-10.81-.23-34.86-.11-45.35,3.16-7,2.07-15.22,12.78-4.76,18.07-7,4.43-7.43,10.59.92,15.66-5.24,11,9.43,17.62,17.07,21.74,0,8.39,6.4,16,13,21.19,10.29,8.22,11.82,11.58,27.81,15.85C500.44,708.76,496.64,729.12,492.92,749.49Zm6.3,11.85c0-4.68,0-3,12.48-71.07,14.33,3.19,24.59,3.71,33.05,5C526.39,719.22,508.76,749.31,499.22,761.34ZM611.13,862.05a25.48,25.48,0,0,1-6.1-4c-10.65-12.11-13.39-83.51-14-99.56.09-11.84-3.12-30.93-3.12-59.54,2.79-.23,5.57-.47,8.35-.84-1.31,5.8-1.3,11.78-1.58,17.69-.68,18.73-1.11,20,.21,22.1,1.84,3.06,7.63-.89,12.76-1.54,6.1.58,3.75,31,.33,38.18-.36,1-1.78.85-2,1.93-3.93,10.74-4.82,72.41,5.63,77,3.21.83,4.26-9.82,4.88-14.64.73-8.51,4.62-16.35,5.48-24.83.77-5.44-.23-10.89,0-16.35.6-15.25,3.6-30.27,5-45.46,1.25-20,7.12-67.3,8.24-79.8h.39c.65.72.39,1.81.58,2.71.43,6.75,5.19,33.75,2.51,87.3l-.71.39c.21,3.11.6,6.2.73,9.32A321.8,321.8,0,0,1,626,852.91C624.78,858.47,619.4,865.82,611.13,862.05Zm22.76-202.58c.4,1.84,2.09,10.21,1.31,12.09l-.15.16a62.81,62.81,0,0,1-1.37,8.74C634,673.47,634.16,666.46,633.89,659.47Zm-12.76,209a19.62,19.62,0,0,0,8.78-8.2c2.44-3.72,8.37-27.31,12-51.17q2.31,26.08,4.79,52.16C638.83,869.28,630.24,871,621.13,868.44Zm117.16-20c-13.76,14.06-27.44,34.83-35.88,52.24-2.08,3.21-27.63,37.64-32.64,51-.73,1.79-.63,3.8-1.53,5.55-1,3.05-2.61,6.32-1.69,9.59,1.08-2.44,1.85-5,2.83-7.5,2.45,8.88,10.53,13.45,13.36,17.78,1.11,1.73,3.46,1.6,5.2,1.09,3.64-1.2,6.77-3.55,9.74-5.91,13-10.1,8.86-53.17,6.78-69.47q3-3.54,5.93-7.16c2.77,33.41,2.8,71.21,2.51,104.06-10.22-2.66-24-10.37-33.67-16-5.43-3.2-14.16-7-15.68-21.88-1.8-14.87,3.48-10.76-3.14-47.33-4.13-27.18-12.41-125-14.75-152.5L645,762c1.34-27.27,1.16-54.69-1.92-81.85-2.59-15.25-9.27-44.65-23.89-49.42,7.37,4.13,10.91,13.24,13.11,21.41.44,1.36-.14,2.75-.25,4.12-2.15,14.94-3.39,30-4.51,45-9.56-4.25-22.6-8.65-33-7.7-12.55,1.69-31.73.43-43.91-1.91-10.56-2.52-23-2.13-42.28-7-18.27-4.75-17.28-6.48-29.1-15.81-4.89-3.86-9.46-8.75-11-15,18.84,9.27,20.43,10.22,42,12.81,3.7.3,7.39,1,11.11.78-5.67-.37-23-3.1-32.81-6.43-3-1-19.07-9.42-31.45-17.41-4.47-3-9.14-7-6.69-11.85,6.49,3,13.39,6.14,20.73,5.48,7.29-.83,16.57,4.67,39.19,8.49a44.78,44.78,0,0,0,7.11.83c-14.79-2.15-31.29-8.41-39.36-10.9s-7.44,1.93-22.05-4.95c-3.82-2-11.81-5.63-11.88-9.24.45-2.52,5.1-4.82,7.5-5.54,31.45,4.54,52.41,2.72,72.42,7.07-6.52-2.66-13.45-4.08-20.35-5.4-19.51-3.69-23-3.41-27.61-3.9-12.08-1.14-22.6-1.89-24-2.89-1.81.3-6.1-1.35-7-3.35-.18-2.12,1.64-3.7,3.06-5,5-4.88,26.73-4.9,42.69-5.12,5.63.33,7.31-.7,35.36,3A159.44,159.44,0,0,1,550,604.83c-13.57-6-47.83-11.46-49-12-1.25-2.39-7.09-11.67-3.49-14.7,3.51,2.39,2,5.15,22.86,12.25,20,6.69,40.85,8.9,56,22.41C589.73,625.17,623,641.23,626,642.1c-3.73-2.27-7.26-4.84-10.92-7.23-.35-3.55.68-8,4.29-8.47,5.4-.72,13.48,5.11,17.76,8.43,2.51,2,5,2.94,9.53,17.35,5.37,18.11,8.88,44.17,9,63.2.06,7.38-2.83,21.73,1,49.33,1.8,12,2.67,14.8,4.68,15.66,3.7,1.45,8.12-6.65,9.86-10.33,3.06-6.95,4.53-10.45.73-41.13-3.41-25.45-10.28-58.84-22.28-81.59-7.32-13.64-13-17.42-20.7-22.17-11.38-6.49-19.17-6.86-18.88,6.18-3.53-2.42-7-4.91-10.5-7.38,9.29-10.56,21.89-13.88,34.92-8,2.14.86,4.06,2.18,6.11,3.22,5,1.38,10.24.14,14.87-1.81,7.35-3.09,12.45-6,26.48-.45,2.62,1,5.08,2.36,7.66,3.46-25.27-15.14-30.76-3.5-42.38-2.9-2.28.08-4.84.17-6.76-1.25A37.28,37.28,0,0,0,622,609.63a61.92,61.92,0,0,0-10.39-9.55c-1.28-1-3-1.6-3.84-3.12-3.84-6.59-2.93-24.46-2.41-32.05.43-9.14,4-9.82,8-27.61,3.43-14.08-1.3-31.35-6-45,0-3.49.09-7,.24-10.46,4.08,6.1,7.67,12.52,11.18,19,3.51,6.13,9.56,22.68,19.12,37.32,4.61,7.34,4.46,3,22.16,34.56,18,32.33,18.7,37.16,24.13,42.25,8.42,8.14,11.86,2.45,29.09,29,18.13,20.93,19.3,21.25,21,42.92,1.08,18.77,4.88,34.89-7.23,104.46-1.83-5.13-3.48-10.31-5.14-15.49,4-7.08,1.3-26.9,1.83-45.36.77-33.25-7.71-6.32-25.39-30.45-3.45-10.35-6.92-20.71-10.64-31,1.28,10.84,16.52,75.44,30.85,115.95C729.42,814.75,739.56,836.14,738.29,848.4Z"/><path class="cls-2" d="M364,232.38a39.37,39.37,0,0,1,21.31.56c4,1.11,7.52,3.67,11.7,4.18,1,.22,2.28-.48,2-1.62a10.14,10.14,0,0,0-4.62-6.32c-6.75-4.17-18.76-5.7-26.81-4.67-7.1.89-13.14,5.86-16.62,11.94-.52.7.13,1.4.51,2A39.33,39.33,0,0,1,364,232.38Z"/><path class="cls-2" d="M357.16,245.94c7.22-5.26,14.37-11.56,34.69-4.21C381.83,235,366.37,233.9,357.16,245.94Z"/><path class="cls-2" d="M391.33,251.21c-7.05-12.45-21.32-14.08-31.07-1.6-.94,1.42-2.61,2.19-3.33,3.79a12.57,12.57,0,0,1,2.45-1.5c7,8.29,20,11.27,34.52,3.24A22.51,22.51,0,0,1,391.33,251.21Zm-20-6a7.13,7.13,0,0,0,1.29,4.54,5.46,5.46,0,0,0,7.41.66,6.77,6.77,0,0,0,1.86-3.92,33,33,0,0,1,3.83,2.38c-4.73,8.88-16.33,9.62-17.79-2.38A22.82,22.82,0,0,1,371.35,245.22Zm-10.15,6.32a32,32,0,0,1,5.26-4.24c2.05,13,15.2,12.1,20.56,2.59a41.23,41.23,0,0,1,4.54,4.71C380.61,259.84,369.05,260.06,361.2,251.54Z"/><path class="cls-2" d="M395.42,251.84c-1.46-3.87-6.38-7.5-10.17-9C388,246.49,391.84,249.08,395.42,251.84Z"/><path class="cls-2" d="M442,250.62c10.32-.34,16.08,7.5,19.38,11.7-6.91-15.62-23.32-17.09-35.21-6.58C431.05,253,436.35,250.71,442,250.62Z"/><path class="cls-2" d="M429.28,249.36c-6,2.42-10.38,9.08-9.42,15.63C421.93,257.44,424.19,254.84,429.28,249.36Z"/><path class="cls-2" d="M434.81,255c-2.64,1.13-4.77,3.1-7.3,4.43-1.78,1.41-1.81,4-1.43,6a6.86,6.86,0,0,1,1.83-4.54c1.94,4.1,6,6.53,9.86,8.63,4.8,2.74,16,1.8,21-2.19.22.52.45,1.05.67,1.59.36-1.9-.81-3.58-1.32-5.33C454.85,253.38,444.7,250.28,434.81,255Zm1.81,2.05,1.84-.45c.29,2.28.72,5.32,3.2,6.23a8.38,8.38,0,0,0,5.21-.76c1.66-1,1.87-3.17,2.07-4.93a18.08,18.08,0,0,1,3.56,2.18c-.55,6.2-7.37,8.17-12.67,6.27C436.77,264.06,436.18,260.1,436.62,257Zm10.06,12.43a14.24,14.24,0,0,1-8.45-1.46c-3.44-1.94-7.13-4.15-8.93-7.82a37.43,37.43,0,0,1,5.61-2.58c0,2.84.3,6,2.45,8.14,3.76,3.76,14.89,2.8,16.56-5.05a22.3,22.3,0,0,1,3.58,5.66C454.37,268.59,450.44,269.26,446.68,269.47Z"/><path class="cls-2" d="M392.27,257.21c-3.08.63-5.78,2.31-8.45,3.88C387.06,261.7,390.43,259.83,392.27,257.21Z"/><path class="cls-2" d="M427.85,263.53a5.76,5.76,0,0,0,5.34,5C431.63,266.66,430.1,264.6,427.85,263.53Z"/><path class="cls-2" d="M416.59,274c-2.5,5.05-1.46,15.93.31,21.43C417.31,288.27,416.31,281.13,416.59,274Z"/><path class="cls-2" d="M424.86,300.92a8.43,8.43,0,0,0-5-8.06A45.27,45.27,0,0,0,424.86,300.92Z"/><path class="cls-2" d="M388.11,303.48a32.3,32.3,0,0,1-2.34-3.38A2.66,2.66,0,0,0,388.11,303.48Z"/><path class="cls-2" d="M394.82,301.66c-3,1-4,3.33,4.13,4.8a1.56,1.56,0,0,0,1.75-1.9C400.46,301.83,397.12,300.48,394.82,301.66Z"/><path class="cls-2" d="M418.32,307.59c0-.16,0-.48-.06-.64-1.65-.74-3.76-1.17-5.38-.16-1.26.81-1.4,2.39-1.62,3.73l.54-.69C414,309.28,416.4,308.89,418.32,307.59Z"/><path class="cls-2" d="M408.69,313.15c6.5-2.41,15.83-.1,16.15-7.24-.53,1.41-1.21,3-2.79,3.5-4.77,1.59-10.15.73-14.69,3.14-2,.32-3.8-.94-5.46-1.86C403.48,312.57,406.22,314.31,408.69,313.15Z"/><path class="cls-2" d="M409.46,310.76c-2.11-.42-4.21-.83-6.34-1.09A6.7,6.7,0,0,0,409.46,310.76Z"/><path class="cls-2" d="M403.66,321.17a1.31,1.31,0,0,0,1.91-1.11,11.29,11.29,0,0,0-1.12-5C402.25,316.08,402.15,320.34,403.66,321.17Z"/><path class="cls-2" d="M387.57,321.58a17.43,17.43,0,0,0,12.06-4.49C395.37,317.79,391.39,319.64,387.57,321.58Z"/><path class="cls-2" d="M420,327.83c-3.78-2.6-6.33-6.53-9.88-9.38C411.53,322.43,415.55,327.67,420,327.83Z"/><path class="cls-2" d="M417.15,320.85c.94,1.39,3.25.63,3.9,2.35.93,2.6,1.85,5.35,3.95,7.28a12,12,0,0,1,3.26,5.12c.64,1.63-.54,3.31,0,5,.73,3.48,3.92,5.55,5.42,8.6-.8.58-1.63,1.13-2.46,1.66-.23-1.14-.24-2.51-1.2-3.3a2.68,2.68,0,0,0-3.63.74c-3.08,3.83-2.22,9.75-9,10.1-3.19.37-2.68,7.23-6.62,7.71-3.88.64-7.09,3.35-11.07,3.61-3.35.31-6.1,2.84-9.55,2.58-.29-1.12-.52-2.46-1.61-3.1-2.45-1.3-5.59-.36-8-1.72-.85-2.86-1.32-6-3.15-8.43-.6-.79-1.61-.67-2.47-.59-1.34-3.44-4-6.11-6.23-8.94-1.23-1.38-.17-3.45-1.38-4.83-.54-.86-1.51-1.47-1.77-2.48.23-.87.95-1.54,1.08-2.45-.05-1.34-1.32-2.4-.94-3.8.62-2.68,2.57-4.75,4.16-6.91a16.72,16.72,0,0,0-4.81,6.32,4.27,4.27,0,0,0,.29,3.51c.75,1.28-1.15,2-1,3.32s1,2.18,1.63,3.18c.94,1.15.07,2.73.67,4,1,2.33,3,4,4.24,6.16,1.21,1.67,1.75,3.69,2.7,5.49.56.85,1.63.51,2.42.23,2.28,5.87,1.16,7.82,3.53,8.93s5,.87,7.48,1.48c0,1.37.55,3,2,3.42a11.52,11.52,0,0,0,7.55-1.17c2.58-1.37,5.64-1,8.28-2.19a40.39,40.39,0,0,1,5.57-2.22c3.83-1.13,4.58-.67,7.67-8,7.79-.76,8.27-7.37,10.21-11a9,9,0,0,0,.91,2.83,2,2,0,0,0,2.89.25,36.17,36.17,0,0,0,3.3-2.59c2.91-3.23-3.31-6.39-5-10.42-.73-1.59.33-3.33-.27-4.94a12.51,12.51,0,0,0-4-6c-3.62-3-3.39-6.09-5-7.65-1.1-1-2.92-.34-3.85-1.59a3.66,3.66,0,0,0-2.89-1.43A4.47,4.47,0,0,1,417.15,320.85Z"/><path class="cls-2" d="M403.2,324.32c-3.43-1-6.11-3.91-14.15.5-2.89,1.51-6.15,2-9.33,2.48,2.16-.12,4.34.11,6.47-.37,5.56-1,7.65-5.11,15.65-1.27,1.3.69,2.71,0,4.08-.07a10.72,10.72,0,0,1,7.59,2.4c1.44,1.46,2.32,3.35,3.65,4.9.87.92,2.27.64,3.4.7-1.06-.4-2.53-.23-3.12-1.39-1.26-2.15-2.21-4.62-4.28-6.14A12.47,12.47,0,0,0,403.2,324.32Z"/><path class="cls-2" d="M382.77,324.8c-5.46-.33-11.74,3.92-14.34,8.4C373.06,330.16,377.61,326.91,382.77,324.8Z"/><path class="cls-2" d="M420.9,335c-8.81.39-8.17-4-12.3-4.59-2.13-.39-3.88,1.14-5.8,1.73-2.19.65-1.91-2.86-7-3.64-3.43-.56-6.61,1.94-10,1.05-2.94-.81-6-1.75-9.07-1.16a26.56,26.56,0,0,1,8.35,2.09c5.12,1.94,9.23-2.55,13.47.89,1,.88,1.75,2.17,3.15,2.4,2.46.44,4.21-2,6.59-2,1.77.16,3.06,1.49,4.48,2.41A10.24,10.24,0,0,0,420.9,335Z"/><path class="cls-2" d="M418.94,329.73a33.94,33.94,0,0,0,2.58,2.65c2.13,2,3.92,4.25,5.93,6.32A11.48,11.48,0,0,0,418.94,329.73Z"/><path class="cls-2" d="M404.79,340.32c-8.92.19-12.47-.58-21.17-9.69,8.74,15.68,25.15,12.51,32.92,6.45C412.77,338.59,408.9,340.14,404.79,340.32Z"/><path class="cls-2" d="M373,332.21c-5.7.71-5.2,4-5.21,5.74s-1.12,3-1.28,4.65c.1,1.22,1.09,2.06,1.91,2.87,1.32,1.28,2.09,3,3.2,4.42a13.45,13.45,0,0,0-2.07-5.16,8.52,8.52,0,0,1-1.42-2.13c.31-1.09.89-2.07,1.13-3.17.26-1.27-.1-2.56,0-3.83C369.79,333.83,371.61,333.1,373,332.21Z"/><path class="cls-2" d="M369.37,357.8c-.63-1.08-.53-2.41-1.16-3.48s-2-1.34-3-2.08c-1.4-1-2-2.66-3-4-.61-.91-1.85-1.26-2.19-2.37-.53-1.63.59-3.21.53-4.85.05-1.13-.66-2.21-.32-3.34a10.7,10.7,0,0,1,1.36-2.11c-1.32.84-2.57,2.22-2.19,3.92.52,2.49-1.83,4.76-.72,7.23.45,1.52,2.18,2,2.78,3.44a8.26,8.26,0,0,0,4.69,4.32c1.34.39,1.4,1.93,1.91,3,.82,1.89,2.88,2.64,4.54,3.59C371.57,359.94,370.14,359.16,369.37,357.8Z"/><path class="cls-2" d="M424.69,338.23a17.57,17.57,0,0,1-.24,3.16c-.43.69-1.53,1-1.43,2,.06,1.15.41,2.32,0,3.44-.28,1.44-1.52,2.39-2,3.74,2.3-1.53,4.36-2.29,3.63-7.15C426.45,342.16,425.59,339.75,424.69,338.23Z"/><path class="cls-2" d="M402.78,347.22c-2-4-7.71-4.63-11.08-2.07C396.89,345.45,396.58,344.39,402.78,347.22Z"/><path class="cls-2" d="M434.75,354.56c-1.66.4-3.55.27-4.94,1.43a4.44,4.44,0,0,0-1.33,2.28c-1.64.23-2.83,1.38-4.1,2.32-1,.32-2.24.43-3,1.34-2,2.2-3.29,4.92-5.53,6.88-1.4,1.18-2.72,2.6-4.5,3.18-1.35.4-2.79-.26-4.11.31-2.77,1-4.66,3.37-6.8,5.25-2.15-.05-3.94-1.39-5.8-2.29,6.15,6.06,7,3.05,9.18,1.73,1.76-1.16,3.7-2.88,6-2.19,6.37,1,12.88-9.34,14-10.79a6.43,6.43,0,0,0,3.85-2.06c.81-.95,2.35-.61,3.1-1.64.56-.7.41-1.75,1-2.43,1.35-.88,3.24-.58,4.43-1.76.91-.9.58-2.25.54-3.38,1.76-.35,3.67,0,5.33-.76.4-.26,1.1-.66.68-1.2-2.09,1.49-4.7-.32-6.93.56C434.58,352,434.87,353.45,434.75,354.56Z"/><path class="cls-2" d="M439.27,357.33c-.64,1.44-.18,3.13-.78,4.59-.94,1.51-6.43-1.3-9.85.65-2,1.05-2.67,3.29-3.89,5-1.15.95-2.39,1.76-3.45,2.82-2,2-4.66,3.2-6.54,5.34-3.65-.89-4.31.36-5.9,3.11-4.25,1.09-3.75,5.14-5.76,9.36a17.65,17.65,0,0,1-4.79-1.48c-1-1.17-1.11-3-2.79-3.54,1.55,1.4.53,3.93,2.24,5.18,1.09.74,2.26,1.37,3.41,2a3.53,3.53,0,0,0,4.35-.51c1.73-1.88,2.2-4.53,3.65-6.58,2.15-.9,2,0,4.07-3.06a4.53,4.53,0,0,0,4.82-1.08c1.81-2,4.36-3.08,6.17-5.07,1.6-1.77,4-2.89,4.88-5.22.65-1.12.89-2.75,2.23-3.28,2.9-.57,8.15.55,9.12-2.5.57-1.76-.17-3.55-.26-5.31.24-1,1.16-1.47,1.84-2.09C441,356,439.78,356.26,439.27,357.33Z"/><path class="cls-2" d="M379.52,361.57c2.52,1.16,5.27,2.4,6.77,4.87.68,1,1.28,2.28,2.57,2.6,5.8,1.46,7.27-.29,10.48-.21a6.87,6.87,0,0,0,3.55-1.28,22.87,22.87,0,0,0,3.78-2.53c1.25-1.16,2.24-2.56,3.56-3.64.6,0,1.37.32,1.83-.22a16.13,16.13,0,0,1,3.51-2.69,11.13,11.13,0,0,0-4.17,1.36c-2.15-.82-3.85,1-5.38,2.23-1.79,1.59-4,2.45-6.15,3.51a18.38,18.38,0,0,0-4.24.54,14.78,14.78,0,0,1-6.21.28C387.61,364.45,385.63,361.6,379.52,361.57Z"/><path class="cls-2" d="M445.31,407.83c-4.77,6.2-7.3,13.92-12.66,19.69C440,426.24,445.09,415.41,445.31,407.83Z"/><path class="cls-2" d="M326,414.06c.26,10.05,10.45,21.86,24.24,22.71C344.22,433.19,333.8,428.89,326,414.06Z"/><path class="cls-2" d="M543.69,440c.78,2.36-3.68,3.48-3.73,7.34-.47,8.8,8.59,10.05,16.92,39.89,4.53,16.67,7.2,38.71.52,54.73,9.41-2.2,12.26-36.62,13-46.15.36-7.92,1.65-26.79,8.9-29.89,2.33-.74,4.93-1.78,6-4.17,5.21-11.81-37.65-33.72-49.08-39.59-2.78,2.45-3.57,6.73,2.22,12.47C540.25,436.34,542.64,437.62,543.69,440Z"/><path class="cls-2" d="M104.28,647.36c6.88-12.63,16.16-26.47,28.59-33.93,18.46-11.09,52-49.85,54.66-57.11,3.78-8.05,20.22-32.67,30.23-53.59,7.55-15.17,18.39-17.93,24.83-28.25,5-7.36,3.76-16.2,19.56-32.79,1.8-1.7,3.35-3.72,5.48-5,0-.11,0-.32-.06-.42-20.61,15.26-23.19,30.28-27,35.83-6.66,10.14-18,12.65-26.24,28-9.65,19-23.34,39.64-30.12,52.15-1,1.67-1.44,3.57-2.59,5.14-7.63,11-28.36,34.74-40.33,45.44,12.72-15.48,25-37.66,30-50.73.93-2.65,2-5.52,1.19-8.34-1.68-6.53-15.37-2.93-13.83,6.55.3,10.74-24.17,53-29.53,62C118,620.85,108.72,636,104.28,647.36Z"/><path class="cls-2" d="M517.52,525.05c.28,2.32.1,4.71.83,7-2.18-12.93,2.58-21.12,5.36-55.59.62-9.11,1.34-29.28-5.05-36.24a43.19,43.19,0,0,1,.74,9.43C519.73,482.66,512.84,467.87,517.52,525.05Z"/><path class="cls-2" d="M228.73,447.41c-32.23,12.94-52,51.25-56.7,71.23,5.45-9.78,11-19.53,17.25-28.81C209.22,460.07,224.13,451.45,228.73,447.41Z"/><path class="cls-2" d="M531.33,456.15c1.85,61.84-1.91,100.75-1.91,100.75C536.21,527,542.72,484.72,531.33,456.15Z"/><path class="cls-2" d="M390.4,477.92c-2.41,9.2-2.52,26.72,1.57,39.2C394.45,507.19,394.36,489.8,390.4,477.92Z"/><path class="cls-2" d="M415.26,527.88c9-13.83,17.37-35.82,19.71-50C426,490.87,416,518.28,415.26,527.88Z"/><path class="cls-2" d="M478.91,480c-17.15,18.56-40.47,51.37-51.94,72.78C447.11,531.49,474.76,489.72,478.91,480Z"/><path class="cls-2" d="M340.7,481.05c3.92,15.93,17.94,47.12,28.6,62.43C364.79,526,350.91,495.73,340.7,481.05Z"/><path class="cls-2" d="M406.39,519.14c5.17-11.17,8.79-28.76,8.84-37C411.28,490.46,406.88,507,406.39,519.14Z"/><path class="cls-2" d="M457.22,486.2c-11.74,13.12-26.12,35.18-31.79,46.94C437.18,520.07,451.94,497.4,457.22,486.2Z"/><path class="cls-2" d="M298.35,487.15c10.76,19.36,43.18,65.63,67.24,92.71C361.48,570.43,320.67,511.06,298.35,487.15Z"/><path class="cls-2" d="M374.34,489.23c-.73,13.64,2.89,31.18,5.28,36.57C380.15,515.85,378.15,499.86,374.34,489.23Z"/><path class="cls-2" d="M328.74,496.53c6,14.66,21.34,43.77,34.36,62.5C360.05,550,340.34,512.38,328.74,496.53Z"/><path class="cls-2" d="M428.49,582.76C451.55,564.89,489,527.15,502.26,510,487.53,521,449,557.22,428.49,582.76Z"/><path class="cls-2" d="M432.66,565.71c11.52-9.33,38.54-37.75,49-52.14C471,522.08,443.12,551.21,432.66,565.71Z"/><path class="cls-2" d="M398.26,590.5c2.8-5.37,12.78-6.66,16.55-7.28,5.76-3.59,13.23-14,12.2-25.78-.29-3.75-2.69-6.74-4.82-9.65-2-2.76-2.55-6.24-2.7-9.58a12,12,0,0,0-8.81,6,42.24,42.24,0,0,1,.95-14.56c-4.35,3.75-8.46,7.93-11.25,13-4.73,8.75,1.71,8.72-3.95,16.67,0-7.5,0-15,0-22.52,1.8-.26,3.6-.53,5.41-.75,0-1.69,0-3.37,0-5.05-1.9-.16-3.81-.33-5.7-.52-.26-1.46-.52-2.92-.78-4.36-1.94,0-3.88,0-5.82,0,0,1.45-.14,2.91-.23,4.36h-4.66c.08,1.84.22,3.68.23,5.52,1.89.36,3.78.71,5.69,1,.27,5.21.44,10.43.59,15.65-1.47-3.61-3-7.27-3.43-11.19a1.65,1.65,0,0,0-2.34-1.1c-2.22,1.06-7.28,6.88-6.3,13.55a13.8,13.8,0,0,1-2.73-5.82,2,2,0,0,0-1.88-1.86c-4.09-.09-8.38,14.67.16,25.31C378.46,576.28,389.47,586.69,398.26,590.5Zm-24.39-39.31a18.2,18.2,0,0,0,4.81,6.77c1,.88,2.8,1.06,3.62-.18,1.63-3-2.86-5.71,2.78-13,1.4,5.91,6.16,16.05,9,21.35,4.86-3.68,9.18-9.69,7.75-15.57-1.16-3.77,2.95-9.21,5.5-12.22a53.61,53.61,0,0,0,2.06,15c1-.23,2-.44,3-.64-.68-3.91.76-8.31,4.34-10.33,1.32,8.37,7.34,10,7.31,16.72.06,12.54-9.38,21.29-11.14,21.29-5.57.81-11.43,2.25-15.67,6.17-6.55-3.71-12.26-8.73-17.55-14C372.83,565.71,371.52,558,373.87,551.19Z"/><path class="cls-2" d="M314.27,528.1c3.65,7,30,40,44.71,53.56C350,567.94,329.79,543.06,314.27,528.1Z"/><path class="cls-2" d="M435.29,583.16c8-3.07,44.26-25.08,59.78-37.93C486.12,548.91,451.07,570.16,435.29,583.16Z"/><path class="cls-2" d="M505.38,556.1c-17,5.68-53.24,24.91-69.66,37.46C453.18,587.62,489.65,568.28,505.38,556.1Z"/><path class="cls-2" d="M310.08,556.62c10.2,10.08,29.64,23.92,41.16,29.67C341.27,576.43,321.87,562.49,310.08,556.62Z"/><path class="cls-2" d="M304.38,569.53c8.72,8.61,32.68,23.92,48.89,29.68C346.13,592,322.27,575.92,304.38,569.53Z"/><path class="cls-2" d="M371,601c2.65,2.24,5.32,4.46,8,6.7,1.46-1.76,2.77-3.63,4.19-5.43,2.81-.13,5.61-.22,8.42-.26,1.77,1.08,3.37,2.41,5.13,3.51,1.26-.77,1.64-1.64,4.56-4.52,2.32,1.63,4.62,3.28,7,4.9,1.47-2,2.91-4,4.38-5.91,1.66,1.86,3.25,3.78,4.91,5.65,1.67-1.87,3.27-3.8,4.94-5.67,1.82,1.35,3.58,2.8,5.46,4.1.92-.54,1.86-1.06,2.82-1.54,0-9.53-7.52-13.94-9.24-15.29A14.74,14.74,0,0,0,409.78,585c-9.26,1.95-11.26,7.83-14,5.56-5.49-4.5-13.86-7.6-17.85-7.87-8.81-1-15.66,3.33-18.2,13.62-.92,3.31-.9,6.76-1.2,10.15l6.28,2.62Q367.92,605,371,601Z"/><path class="cls-2" d="M343.94,604.73c.51-.19-.3-.22-.4-.23-13.18-6.14-28.31-10.15-38.23-11.12C316.61,599.39,338.69,605,343.94,604.73Z"/><path class="cls-2" d="M423.22,601.9c-1.86,2.19-3.76,4.35-5.62,6.54-1.4-1.83-2.77-3.68-4.16-5.52-1.59,1.84-3.1,3.76-4.66,5.63q-2.86-2.52-5.67-5.12c-2,1.86-4,3.76-6,5.65-2-1.6-3.91-3.27-5.94-4.8-2.53.08-5.09,0-7.6.33-1.65,1.73-3.17,3.59-4.77,5.37q-3.78-3.15-7.57-6.28c-2,2.57-4,5.17-6.06,7.75-1.91-1.12-3.66-2.58-5.65-3.51-1.46,1.2-2.82,2.53-4.24,3.79-2.82-2.33-5.55-4.78-8.46-7,2.32,2.77,4.82,5.39,7.19,8.12-2.49,2.28-5,4.51-7.52,6.78,3.31-1.3,6.51-2.87,9.77-4.28,2.07,2.29,4.12,4.61,6.19,6.9,1.37-1.92,2.73-3.84,4.08-5.78,1,.5,1.81,1.39,2.91,1.53,2.84-.38,5.68-.78,8.5-1.26a12.35,12.35,0,0,0,1.32-1.73c3,2.42,6,4.82,9,7.23,3-2.77,6-5.52,9-8.3,2.17,1.63,4.31,3.31,6.51,4.91,1.89-1.84,3.64-3.82,5.55-5.64,1.46,1.42,2.8,3,4.28,4.37l3.71-4.12c1.15,1.47,2.33,2.91,3.49,4.39,2.93-2.23,5.83-4.5,8.75-6.75,2.57,1.68,5.14,3.38,7.75,5-2.06-2.13-4.18-4.19-6.27-6.3,3-3,6.79-5.07,10.16-7.65-4.38,1.48-8.71,3.12-13.05,4.72C426.53,605.25,424.9,603.54,423.22,601.9Zm-62,14.72-2.71-2.25c.92-.41,1.82-.81,2.75-1.19l1.78,1.11C362.38,615.06,361.77,615.83,361.18,616.62Zm8.24-2.61-.88-.23c1-1.63,2.18-3.14,3.25-4.72,1.57,1.29,3.26,2.45,4.73,3.87C374.17,613.38,371.79,613.71,369.42,614Zm18.66,3.65c-2.25-1.86-4.48-3.73-6.72-5.59.8-1.11,1.6-2.22,2.38-3.34,2-.14,4.07-.33,6.11-.5l4.52,3.45C392.28,613.68,390.17,615.66,388.08,617.66Zm15.78-3.12c-1.27-1-2.53-2-3.79-3.07,1.35-1.22,2.67-2.47,4-3.68l2.93,2.93C405.94,612,404.91,613.26,403.86,614.54Zm9.82-1.54-2.18-2c.73-.73,1.46-1.47,2.2-2.19l1.71,2.12Zm7.55.27c-.57-.73-1.12-1.46-1.67-2.2,1.25-1.35,2.45-2.74,3.73-4.08l2.41,1.56C424.2,610.11,422.65,611.63,421.23,613.27Z"/><path class="cls-2" d="M343.5,615.16c-11-2.49-31.66-2.39-45.89,1.53C309.42,619.39,330.48,618.9,343.5,615.16Z"/><path class="cls-2" d="M418.5,635.25a51.84,51.84,0,0,0,11.63-14.85c1.09-1.77.25-3.85-.87-5.35-2.8,2.14-5.56,4.34-8.35,6.51-3.81-1.46-7.59-3-11.41-4.38-1.61,1.8-3.26,3.58-4.86,5.4-2.43-1.73-4.84-3.46-7.27-5.18-3.45,3.45-6.9,6.89-10.34,10.36q-4.41-4.38-8.77-8.78c-2.08.26-4.17.51-6.25.8-2.12,2-4.15,4-6.27,6a168.79,168.79,0,0,0,13.39,16.32c9.7,10,14,12.84,21.34,13.26C406.68,655.09,407.63,647.43,418.5,635.25Z"/><path class="cls-2" d="M683.36,639.66c.63.64.93,1.81,2,1.86a12.11,12.11,0,0,0,.76,1.64c.76.22,1,1,1.45,1.6,11.35,12.63,23.4,17.72,30,18.22-19.19-9.77-28.19-24.79-34.6-30.56-10.25-9.59-20-11.22-24.09-10.13,5.53,1,10.44,4,14.77,7.47A74.38,74.38,0,0,1,683.36,639.66Z"/><path class="cls-2" d="M287.82,638c20.39-2.11,49.79-9.11,63.46-14.06C331.15,625.93,301,633.12,287.82,638Z"/><path class="cls-2" d="M268.65,672.7C295.28,663.9,338,641.26,357,627,331.57,635.22,287.49,658.33,268.65,672.7Z"/><path class="cls-2" d="M708.87,680.1c-8.84-8.81-10.47-23.22-23.18-37.29-4.27-5.6-12.1-12.37-18.79-14.39,9.62,6.84,18,19.27,23.73,29.58,4.53,8.11,12.18,27.6,23.33,27.13,3.53-.11,6.5-2.77,7.86-5.9-1.61,1.51-3.32,3.09-5.54,3.57C713.52,683.54,710.77,682,708.87,680.1Z"/><path class="cls-2" d="M657.6,634.21c16.67,7.09,21.58,31.92,19.88,49.89,4-7.11,4.63-19.17,2.47-27.11C675.74,640.77,665.45,634.12,657.6,634.21Z"/><path class="cls-2" d="M657.43,652.12c-3.54-5.2-6.28-11.18-6.47-17.56-2.4,11.41,6.56,22.49,9,26.16,6.91,10.52,14,29.52,15.73,42,.6-5-.19-10-1.19-14.83C669.49,665.2,660.24,656.32,657.43,652.12Z"/><path class="cls-2" d="M291.86,706.46c19.77-16.2,56.66-52.54,70.73-69.16C350.36,646.69,308.48,686.87,291.86,706.46Z"/><path class="cls-2" d="M237.43,644.76c7.18,6.42,20.49,3.77,24.67-6.31C254.41,643.51,250.39,646.78,237.43,644.76Z"/><path class="cls-2" d="M425.35,638.25c17.17,19.89,56.46,51,73.33,59.76C481.89,679,448.46,651.58,425.35,638.25Z"/><path class="cls-2" d="M273.33,750.36c26.55-23.65,78-82.43,95.44-108.4C343.07,664.9,292.67,722,273.33,750.36Z"/><path class="cls-2" d="M144.39,670.73a119.07,119.07,0,0,1,7-27.62c-3.17.22-5.47-.51-9.93,6.4-4.66,7.63-8.55,19.9-9.38,24,3.06-7.23,8.51-20.08,14-25.57-5.63,15.5-9.62,34.15-4.1,49.63,8.34,22.22-3.39,73.38.76,99.79-.18-24.08,9.23-62.24,6.41-89.42C147.85,694.27,141.94,692.51,144.39,670.73Z"/><path class="cls-2" d="M166.62,643.16a15.1,15.1,0,0,0-12.1,10.53,21.75,21.75,0,0,0-.7,8.94c.82,10.72-5.76,18.56-1.34,23.37-.22-3.42,2.23-6,3.79-8.79C165.73,661.51,153.05,657,166.62,643.16Z"/><path class="cls-2" d="M422.93,646.09c3.09,4.63,35,37.19,59.15,56.15C475,693.27,444.94,663.35,422.93,646.09Z"/><path class="cls-2" d="M307.65,738.8c11.3-11.93,59.54-79.92,64.19-89.7C343.71,683.49,311.82,731,307.65,738.8Z"/><path class="cls-2" d="M489.78,749.19c-15.34-27.76-54.35-79.76-74.14-99.5C432.87,680.61,473.54,733.57,489.78,749.19Z"/><path class="cls-2" d="M163.82,671.19c-.78,9.39-2.51,18.66-4,28-2.43,20.77-1,69.55,14.53,88.13-8.26-20.46-7.85-62.07-7.33-84.74.27-6.54,2.33-17.44,1.44-32.16-.09-7.28,4.33-13.6,9.05-18.74C170.42,655.62,164.38,662.77,163.82,671.19Z"/><path class="cls-2" d="M291.54,853.24c23.39-42,76.17-160.87,89.61-201C355.82,698.8,308.35,805.36,291.54,853.24Z"/><path class="cls-2" d="M91,848.43c9.07,11.71,21,57.84,24.49,72.24,3.27,13,2.81,33.47,8.12,36.56,0-16.37-1.69-32.86-6.25-48.63-10.23-38.55-23.77-97.34-19.67-136.84-3.83-20.43-8.6-12.79-4.18-28.67,3.74-12.72,8.11-24.79,5.73-43.85-.94-8.77-3.35-16.22,1.66-24.35,9.76-15.63,9.69-11.79,9.22-22.08C101,664.23,90.7,681.75,88.93,696.4c-1.29,15.54-3.89,31-5,46.51-1.94,31.16,2.9,30.16,4.3,36.83C92.58,798,83.63,836.89,91,848.43Z"/><path class="cls-2" d="M547.59,656.56c9,6.05,50.14,8.65,54.34,8.76C571.87,645.49,547.65,655.84,547.59,656.56Z"/><path class="cls-2" d="M388.38,655.36c-2.91,18.7-11.3,101-14.11,166.41C376.42,810.25,385.75,721.55,388.38,655.36Z"/><path class="cls-2" d="M389.81,888.92c2.78-17.61,9.38-146.73,5.82-232C392.16,684.82,386.63,804,389.81,888.92Z"/><path class="cls-2" d="M455.56,802.42c-5.38-28.63-28.21-103.63-46.55-145.54C411.31,674,436.78,760.71,455.56,802.42Z"/><path class="cls-2" d="M459.83,749.91c-5-14.31-32.18-68.61-43.66-86.25C427.07,690.2,447.61,730.1,459.83,749.91Z"/><path class="cls-2" d="M352.57,779.46C366.64,736.7,380.84,672.39,381,667.24,364.8,721.61,356.78,756.08,352.57,779.46Z"/><path class="cls-2" d="M428.26,801.2c-4.68-35.36-16.4-98.24-24.45-129.81C407.66,703.25,420.2,771.1,428.26,801.2Z"/><path class="cls-2" d="M684.88,697.52c2.84,79.15-2.69,101.65-2.61,109.53,1.63-7.49,3.29-15,4.2-22.59,3.38-25.31,3.43-57.39-1.46-89A19.59,19.59,0,0,0,684.88,697.52Z"/><path class="cls-2" d="M710.63,839.14h.14c4-35.21-6.31-83.89-17.26-110.23C698.6,757.66,706.8,795.28,710.63,839.14Z"/><path class="cls-2" d="M205.45,818.18c-.61,13.63,1.53,17.19,6.07,27.61C216,855.18,223.23,868,233,871.3c3.51,1.19,7.77.75,10.51-1.91a12.35,12.35,0,0,1-4.4,1.18c-13.33.67-22.59-27.23-26.17-36.9-3.4-11.68.66-26.3.57-32.92.28-15.76-6.87-35.62-14.79-49,4.11,14.11,8.27,28.42,9,43.2C208.23,802.76,205.78,810.37,205.45,818.18Z"/><path class="cls-2" d="M158.75,777.72c-7.4,22.53-9.34,59.84,4.38,74.74C154,831,159.26,790.87,158.75,777.72Z"/><path class="cls-2" d="M487,929.56c-13,10.3-26.67,26.45-47.15,44.36-26.88,22.94-41.8,26.87-51.94,30,43.05-4.74,82.15-53.38,103.75-70.09,9.56-7.48,16.35-14,13.94-24.9-.19-1.19-.66-2.63.3-3.6,7.83-8.92,34.15-72.69,44.85-102.56-17.52,34.49-37.81,79.51-47.39,95.71-1.05,1.92-2.88,3.3-3.63,5.38-1.09,2.66-.23,5.52.13,8.23C501,918.87,492.4,925.14,487,929.56Z"/><path class="cls-2" d="M610.89,971.5c.6-4.42,10.4-76.76,10.22-79.33-.71,2.53-1.7,5-2.53,7.46-7.09,20.43-36.28,103.21-18.06,92.61C610.09,986.14,610.31,975.19,610.89,971.5Z"/><path class="cls-2" d="M423.94,912.61c-1.57,2.69-2.16,5.79-3.05,8.75-1.56,5.36-11.3,13.53-19.4,22.62a65.91,65.91,0,0,0,17.18-10.25c10.59-9,7.43-11.68,10.75-18.32,4-7.92,19.55-8.09,22.09-9.63C441.52,903.35,428.86,903.6,423.94,912.61Z"/><path class="cls-2" d="M301.69,981.05c-19.56-3.36-11.86-2.34-20.87-4.3-30.34-8.22-57.77-25.83-79-48.85,3.31,5.71,18.91,24.81,44.3,38.44,12.51,6.84,32.42,13.62,46.5,14.25C295.63,980.75,298.65,981.18,301.69,981.05Z"/><path class="cls-2" d="M642.78,1020.74c1.56,8.86,9.64,18.94,17.27,34.62-1.86-10.19-7.35-19.16-11-28.73-6.53-14.25,2-45.61-2.4-55.84-1.73-6.31-1.94-12.9-2.52-19.38-.77,4.08-1.87,15-.08,22C645.58,979.49,639.57,1003.51,642.78,1020.74Z"/><path class="cls-2" d="M183.91,979.92c10.74,8.72,64.62,37.49,105.34,26.54a42.84,42.84,0,0,0-5.55.08C250.91,1007.06,214.19,992.4,183.91,979.92Z"/><path class="cls-2" d="M430,1082.89c32.33-14.3,64.4-54.62,79.05-85.18-5,6.2-19,25.78-37,46.09C448.21,1070.56,434.93,1078.85,430,1082.89Z"/><path class="cls-2" d="M381.29,1004.48c-2.14,0-27.44,1.82-41.4,3.53-3.87.61-7.88,1.24-11.29,3.27-6.53,3.35,10.68,10.85,19.24.53C359,1009.36,370.16,1007,381.29,1004.48Z"/><path class="cls-2" d="M414.37,1046c-9.5,4.4-20,14.52-92.93,34.78C344.78,1080.13,389,1069.48,414.37,1046Z"/></svg>